<ttFont>
          <CharString index="0">
            -109 -31 -34 -73 hvcurveto
            return
          </CharString>
          <CharString index="1">
            8 -86 callsubr
            return
          </CharString>
          <CharString index="2">
            -15 -8 -88 callsubr
            return
          </CharString>
          <CharString index="3">
            rmoveto
            -107 callgsubr
            return
          </CharString>
          <CharString index="4">
            -51 callsubr
            -134 -59 callsubr
            160 46 callsubr
            -61 277 callgsubr
          </CharString>
          <CharString index="5">
            hlineto
            -98 callgsubr
            return
          </CharString>
          <CharString index="6">
            vlineto
            -105 callgsubr
            return
          </CharString>
          <CharString index="7">
            -78 callsubr
            -160 vlineto
            -27 callgsubr
            return
          </CharString>
          <CharString index="8">
            -93 45 -34 86 vhcurveto
            -101 callgsubr
          </CharString>
          <CharString index="9">
            234 callgsubr
            -299 182 callsubr
            return
          </CharString>
          <CharString index="10">
            -104 callsubr
            124 -101 callsubr
            45 hlineto
            return
          </CharString>
          <CharString index="11">
            -95 callgsubr
            127 return
          </CharString>
          <CharString index="12">
            -80 callgsubr
            -104 callgsubr
            return
          </CharString>
          <CharString index="13">
            hlineto
            -15 263 callsubr
            return
          </CharString>
          <CharString index="14">
            168 -94 callgsubr
          </CharString>
          <CharString index="15">
            -15 -10 -88 callsubr
            return
          </CharString>
          <CharString index="16">
            -73 31 -34 -11 callsubr
            return
          </CharString>
          <CharString index="17">
            -97 callgsubr
            vlineto
            return
          </CharString>
          <CharString index="18">
            -26 -8 -8 -26 vhcurveto
            -151 286 callgsubr
            return
          </CharString>
          <CharString index="19">
            5 19 hvcurveto
            return
          </CharString>
          <CharString index="20">
            vlineto
            -91 callsubr
            -84 callgsubr
            return
          </CharString>
          <CharString index="21">
            5 15 vhcurveto
            return
          </CharString>
          <CharString index="22">
            -42 callsubr
            -151 -102 callgsubr
            return
          </CharString>
          <CharString index="23">
            151 callsubr
            202 -67 callsubr
            return
          </CharString>
          <CharString index="24">
            -11 callgsubr
            -119 39 callsubr
            -42 170 26 vlineto
            15 8 5 15 80 callsubr
            return
          </CharString>
          <CharString index="25">
            hlineto
            30 6 -6 -30 hvcurveto
            -33 170 70 vlineto
            82 -50 30 -72 vhcurveto
            endchar
          </CharString>
          <CharString index="26">
            vlineto
            -15 -69 callgsubr
            return
          </CharString>
          <CharString index="27">
            -103 callgsubr
            154 return
          </CharString>
          <CharString index="28">
            10 hvcurveto
            -66 callsubr
          </CharString>
          <CharString index="29">
            -46 callsubr
            -38 callgsubr
            return
          </CharString>
          <CharString index="30">
            -5 -15 vhcurveto
            return
          </CharString>
          <CharString index="31">
            -113 60 -38 callsubr
            113 -60 return
          </CharString>
          <CharString index="32">
            -91 callsubr
            -64 callsubr
            return
          </CharString>
          <CharString index="33">
            hlineto
            -57 callgsubr
            return
          </CharString>
          <CharString index="34">
            vlineto
            -77 callgsubr
            return
          </CharString>
          <CharString index="35">
            258 callsubr
            hlineto
            -65 callsubr
            return
          </CharString>
          <CharString index="36">
            4 7 2 8 10 vvcurveto
            116 vlineto
            10 -2 8 -4 7 vhcurveto
            return
          </CharString>
          <CharString index="37">
            rmoveto
            122 129 -122 hlineto
            return
          </CharString>
          <CharString index="38">
            13 vlineto
            109 31 44 73 hvcurveto
            134 -43 callsubr
            -63 90 36 11 callgsubr
            -91 -81 callsubr
            return
          </CharString>
          <CharString index="39">
            -37 -15 -17 -30 -4 hvcurveto
            -5 hlineto
            30 -4 -15 17 -37 hhcurveto
            return
          </CharString>
          <CharString index="40">
            -62 callgsubr
            19 4 -9 -15 hvcurveto
            return
          </CharString>
          <CharString index="41">
            -94 -96 callgsubr
          </CharString>
          <CharString index="42">
            110 callgsubr
            -152 -103 callgsubr
            324 return
          </CharString>
          <CharString index="43">
            63 -74 callsubr
            -60 -81 callsubr
            -22 113 callsubr
            36 -170 -52 vlineto
            return
          </CharString>
          <CharString index="44">
            rmoveto
            -78 97 78 hlineto
            -248 -63 callgsubr
            return
          </CharString>
          <CharString index="45">
            272 113 -248 -66 callgsubr
            return
          </CharString>
          <CharString index="46">
            rmoveto
            -85 callsubr
            return
          </CharString>
          <CharString index="47">
            -48 callgsubr
            hlineto
            endchar
          </CharString>
          <CharString index="48">
            51 callgsubr
            -103 23 callsubr
            return
          </CharString>
          <CharString index="49">
            26 8 -8 -26 hvcurveto
            return
          </CharString>
          <CharString index="50">
            112 -170 -102 -43 callgsubr
            198 -36 callsubr
            return
          </CharString>
          <CharString index="51">
            -26 -9 -8 -25 vhcurveto
            -19 return
          </CharString>
          <CharString index="52">
            225 -61 callsubr
            return
          </CharString>
          <CharString index="53">
            hlineto
            -17 -8 7 15 hvcurveto
            return
          </CharString>
          <CharString index="54">
            -45 callsubr
            118 callsubr
            return
          </CharString>
          <CharString index="55">
            132 callsubr
            219 75 callgsubr
            -102 140 rmoveto
            -107 -35 102 callsubr
            35 -49 107 vhcurveto
            127 hlineto
            107 35 49 75 hvcurveto
            251 vlineto
            75 -35 49 -107 vhcurveto
            endchar
          </CharString>
          <CharString index="56">
            170 335 -62 callgsubr
            15 8 -5 -19 hvcurveto
            return
          </CharString>
          <CharString index="57">
            -105 callgsubr
            7 -74 callsubr
            -36 90 63 -43 callsubr
            return
          </CharString>
          <CharString index="58">
            64 113 -31 callsubr
            return
          </CharString>
          <CharString index="59">
            4 7 2 8 10 vvcurveto
            134 84 callsubr
            -86 159 callsubr
            -112 vlineto
            -22 6 -17 13 -12 vhcurveto
            -45 -11 -27 -35 -60 vvcurveto
            -141 vlineto
            -75 42 -35 65 vhcurveto
            131 hlineto
            27 16 5 11 10 hvcurveto
            -78 170 257 -170 -58 160 callsubr
            -71 -100 callgsubr
            87 -36 callsubr
            return
          </CharString>
          <CharString index="60">
            -68 callsubr
            -141 hlineto
            return
          </CharString>
          <CharString index="61">
            -92 callgsubr
            134 -101 callsubr
            11 103 return
          </CharString>
          <CharString index="62">
            21 7 12 15 31 vvcurveto
            109 84 callgsubr
            -122 39 callsubr
            -72 170 56 -101 callsubr
            16 -74 callsubr
            -71 vlineto
            194 callsubr
            -33 -113 33 199 callgsubr
            -71 -81 callsubr
            -16 -94 callsubr
            66 -170 -82 vlineto
            -73 31 -44 -11 callsubr
            310 callsubr
            44 73 hvcurveto
            60 67 -255 11 callsubr
            return
          </CharString>
          <CharString index="63">
            -93 51 -34 110 vhcurveto
            return
          </CharString>
          <CharString index="64">
            vlineto
            74 -41 32 -89 vhcurveto
            -53 46 callgsubr
            return
          </CharString>
          <CharString index="65">
            -26 -8 -8 -26 vhcurveto
            return
          </CharString>
          <CharString index="66">
            215 -50 callgsubr
            return
          </CharString>
          <CharString index="67">
            vlineto
            15 8 7 17 vhcurveto
            return
          </CharString>
          <CharString index="68">
            -5 vlineto
            -30 -4 -17 -15 -37 vvcurveto
            return
          </CharString>
          <CharString index="69">
            -529 -97 callgsubr
            return
          </CharString>
          <CharString index="70">
            rmoveto
            0 callsubr
            84 -140 rlineto
            -11 -3 -7 -3 -12 hhcurveto
            return
          </CharString>
          <CharString index="71">
            vlineto
            -18 callgsubr
            return
          </CharString>
          <CharString index="72">
            -30 callsubr
            -170 return
          </CharString>
          <CharString index="73">
            rmoveto
            -5 callsubr
            18 9 -9 -21 hvcurveto
            -189 258 callgsubr
            return
          </CharString>
          <CharString index="74">
            vlineto
            -75 callsubr
            return
          </CharString>
          <CharString index="75">
            hlineto
            -3 callgsubr
            return
          </CharString>
          <CharString index="76">
            -11 -94 callsubr
            return
          </CharString>
          <CharString index="77">
            -58 callsubr
            -118 -16 callgsubr
            129 return
          </CharString>
          <CharString index="78">
            -102 callgsubr
            51 vlineto
            -18 callsubr
            return
          </CharString>
          <CharString index="79">
            -8 callgsubr
            374 262 callgsubr
            -251 276 callsubr
            return
          </CharString>
          <CharString index="80">
            34 93 hvcurveto
            return
          </CharString>
          <CharString index="81">
            -102 callgsubr
            42 -87 callgsubr
            20 20 callsubr
            -19 170 29 84 callsubr
            -54 26 callsubr
            return
          </CharString>
          <CharString index="82">
            152 callgsubr
            45 -144 213 callsubr
            return
          </CharString>
          <CharString index="83">
            24 151 callgsubr
            291 -170 -76 159 callgsubr
            120 25 callgsubr
          </CharString>
          <CharString index="84">
            -73 31 -34 109 vhcurveto
            -32 callgsubr
          </CharString>
          <CharString index="85">
            hhcurveto
            -93 callsubr
          </CharString>
          <CharString index="86">
            hlineto
            -107 callsubr
            -120 -30 callgsubr
            return
          </CharString>
          <CharString index="87">
            339 -25 callsubr
            return
          </CharString>
          <CharString index="88">
            -47 callsubr
            95 callsubr
            return
          </CharString>
          <CharString index="89">
            -79 callgsubr
            69 113 -69 -102 callgsubr
            return
          </CharString>
          <CharString index="90">
            -2 callgsubr
            -44 callsubr
            return
          </CharString>
          <CharString index="91">
            -94 callsubr
            23 -101 callsubr
            return
          </CharString>
          <CharString index="92">
            -97 -98 -21 callsubr
            return
          </CharString>
          <CharString index="93">
            18 callsubr
            36 23 10 18 13 307 callgsubr
            59 hhcurveto
            return
          </CharString>
          <CharString index="94">
            vlineto
            75 -40 49 -107 vhcurveto
            return
          </CharString>
          <CharString index="95">
            -56 callsubr
            109 return
          </CharString>
          <CharString index="96">
            109 vhcurveto
            return
          </CharString>
          <CharString index="97">
            -107 callsubr
            -238 vlineto
            -80 callgsubr
            125 -102 callsubr
            -33 callgsubr
            return
          </CharString>
          <CharString index="98">
            -69 callsubr
            -130 -198 hlineto
            return
          </CharString>
          <CharString index="99">
            -80 callgsubr
            -24 callsubr
          </CharString>
          <CharString index="100">
            -55 callsubr
            117 -60 callgsubr
            36 9 callgsubr
            -618 -314 91 callsubr
            return
          </CharString>
          <CharString index="101">
            -60 callgsubr
            89 -37 callgsubr
            return
          </CharString>
          <CharString index="102">
            -17 -8 7 15 hvcurveto
            205 70 callgsubr
            return
          </CharString>
          <CharString index="103">
            -104 callsubr
            198 158 callsubr
            230 194 rmoveto
            113 return
          </CharString>
          <CharString index="104">
            rmoveto
            -495 142 callsubr
            -42 -54 callsubr
            495 -175 -518 -28 callgsubr
            148 214 callsubr
            vlineto
            endchar
          </CharString>
          <CharString index="105">
            -15 -8 5 return
          </CharString>
          <CharString index="106">
            rmoveto
            80 hlineto
            105 38 32 83 hvcurveto
            159 vlineto
            10 -2 8 -4 7 vhcurveto
            252 113 -699 209 callgsubr
            651 500 141 callsubr
            -191 hlineto
            -92 callgsubr
            134 -101 callsubr
            10 103 -63 174 callsubr
            -65 callgsubr
            80 -170 -64 -85 callgsubr
            110 43 vlineto
            -17 callgsubr
            217 -5 rmoveto
            -642 154 callsubr
          </CharString>
          <CharString index="107">
            -105 callsubr
            118 vlineto
            71 -9 50 0 vhcurveto
            0 15 -52 34 -57 vhcurveto
            return
          </CharString>
          <CharString index="108">
            rmoveto
            208 callsubr
            -157 hlineto
            -53 -69 -53 69 311 callgsubr
            133 -150 rlineto
            return
          </CharString>
          <CharString index="109">
            -34 86 vhcurveto
            return
          </CharString>
          <CharString index="110">
            230 113 rmoveto
            return
          </CharString>
          <CharString index="111">
            27 callsubr
            -136 -73 callsubr
            -104 193 callgsubr
            204 5 callsubr
            return
          </CharString>
          <CharString index="112">
            331 callsubr
            17 8 hvcurveto
            -19 26 39 callgsubr
            return
          </CharString>
          <CharString index="113">
            45 callgsubr
            45 -34 86 vhcurveto
            return
          </CharString>
          <CharString index="114">
            -8 callgsubr
            310 rmoveto
            92 callsubr
            -167 vlineto
            return
          </CharString>
          <CharString index="115">
            -299 rmoveto
            52 hlineto
            115 166 rlineto
            87 -167 vlineto
            return
          </CharString>
          <CharString index="116">
            rmoveto
            116 -13 callsubr
            -141 hlineto
            2 callgsubr
            141 -13 callgsubr
            112 -175 -99 142 callsubr
            -35 119 callgsubr
            35 -55 callgsubr
            -103 vlineto
            endchar
          </CharString>
          <CharString index="117">
            rmoveto
            100 callsubr
            return
          </CharString>
          <CharString index="118">
            170 529 return
          </CharString>
          <CharString index="119">
            -359 186 callsubr
          </CharString>
          <CharString index="120">
            hlineto
            15 callgsubr
            return
          </CharString>
          <CharString index="121">
            vlineto
            15 4 9 19 vhcurveto
            return
          </CharString>
          <CharString index="122">
            92 callgsubr
            478 315 40 callgsubr
            return
          </CharString>
          <CharString index="123">
            rmoveto
            170 89 113 -557 239 callsubr
            -57 249 callsubr
            -238 vlineto
            -84 33 -35 94 246 callgsubr
            149 rlineto
            86 8 31 37 80 vvcurveto
            67 callgsubr
          </CharString>
          <CharString index="124">
            -25 callgsubr
            -76 28 -37 76 -11 230 callsubr
            76 10 27 37 76 210 callsubr
          </CharString>
          <CharString index="125">
            -44 callgsubr
            170 hlineto
            return
          </CharString>
          <CharString index="126">
            -314 -97 callsubr
            return
          </CharString>
          <CharString index="127">
            hlineto
            15 10 -5 -19 hvcurveto
            return
          </CharString>
          <CharString index="128">
            17 hlineto
            76 25 31 59 hvcurveto
            60 -135 -31 vlineto
            -14 -6 -7 -12 vhcurveto
            -21 -43 52 -58 hhcurveto
            -19 hlineto
            -75 -24 -36 -59 hvcurveto
            -55 135 return
          </CharString>
          <CharString index="129">
            129 callgsubr
            314 75 69 callsubr
            return
          </CharString>
          <CharString index="130">
            64 -83 callgsubr
            return
          </CharString>
          <CharString index="131">
            vlineto
            -73 31 -34 109 vhcurveto
            64 113 -11 hlineto
            -15 -8 5 15 hvcurveto
            206 vlineto
            15 8 5 15 138 callgsubr
            return
          </CharString>
          <CharString index="132">
            -107 callsubr
            -2 41 callsubr
            return
          </CharString>
          <CharString index="133">
            hlineto
            -15 -8 6 12 hvcurveto
            7 vlineto
            12 8 6 15 vhcurveto
            return
          </CharString>
          <CharString index="134">
            -42 callsubr
            -126 -29 callsubr
            87 -47 callgsubr
            return
          </CharString>
          <CharString index="135">
            56 callsubr
            -136 -73 callsubr
            return
          </CharString>
          <CharString index="136">
            98 callsubr
            274 callsubr
            return
          </CharString>
          <CharString index="137">
            hlineto
            -19 callsubr
            return
          </CharString>
          <CharString index="138">
            vlineto
            -23 callsubr
          </CharString>
          <CharString index="139">
            239 callsubr
            109 callgsubr
            return
          </CharString>
          <CharString index="140">
            116 callsubr
            -78 29 -37 81 -9 230 callsubr
            71 12 26 37 74 vvcurveto
            -60 callsubr
          </CharString>
          <CharString index="141">
            -113 60 -176 78 callsubr
            return
          </CharString>
          <CharString index="142">
            -314 hlineto
            -46 callsubr
            return
          </CharString>
          <CharString index="143">
            820 1107 225 107 callgsubr
            -462 hlineto
            -93 -50 -23 -84 hvcurveto
            -65 vlineto
            -84 50 -23 73 vhcurveto
            41 93 -31 callsubr
            40 -101 callsubr
            16 -74 callsubr
            -220 vlineto
            194 callsubr
            -241 166 callsubr
            81 callgsubr
            113 -33 -102 callgsubr
            98 vlineto
            26 8 8 26 vhcurveto
            869 hlineto
            3 callsubr
            -1357 -113 60 hlineto
            -17 callsubr
            return
          </CharString>
          <CharString index="144">
            vlineto
            -89 6 -14 -44 callgsubr
            return
          </CharString>
          <CharString index="145">
            68 callgsubr
            -38 callgsubr
            return
          </CharString>
          <CharString index="146">
            hlineto
            160 callgsubr
            return
          </CharString>
          <CharString index="147">
            -528 32 callsubr
            return
          </CharString>
          <CharString index="148">
            -59 vlineto
            -71 callsubr
            return
          </CharString>
          <CharString index="149">
            93 -41 34 -120 vhcurveto
            return
          </CharString>
          <CharString index="150">
            -230 -314 59 callgsubr
            return
          </CharString>
          <CharString index="151">
            58 104 56 -104 266 callgsubr
            return
          </CharString>
          <CharString index="152">
            -42 callsubr
            -164 -102 callgsubr
            56 13 vlineto
            109 31 44 73 hvcurveto
            153 -43 callsubr
            -63 90 36 11 callgsubr
            -110 -81 callsubr
            -214 hlineto
            4 7 2 8 10 vvcurveto
            95 vlineto
            10 -2 8 -4 7 vhcurveto
            55 113 -502 336 callsubr
            hlineto
            -58 callsubr
            -77 -16 callgsubr
            88 138 callsubr
            148 301 -66 vlineto
            -44 callsubr
            return
          </CharString>
          <CharString index="153">
            vlineto
            93 -45 34 -86 vhcurveto
            return
          </CharString>
          <CharString index="154">
            -93 41 -34 120 vhcurveto
            81 callsubr
          </CharString>
          <CharString index="155">
            33 callgsubr
            95 callgsubr
            return
          </CharString>
          <CharString index="156">
            rmoveto
            -170 hlineto
            -97 251 callgsubr
            hlineto
            return
          </CharString>
          <CharString index="157">
            363 542 rmoveto
            61 -32 39 -86 vhcurveto
            -102 hlineto
            -86 -32 -39 -61 hvcurveto
            -183 vlineto
            -60 32 -40 86 vhcurveto
            102 hlineto
            86 32 40 60 hvcurveto
            510 -76 rmoveto
            61 -32 39 -86 vhcurveto
            -102 hlineto
            -86 -32 -39 -61 hvcurveto
            -183 vlineto
            -60 32 -40 86 vhcurveto
            102 hlineto
            86 32 40 60 hvcurveto
            -651 279 rmoveto
            -12 -6 -5 -14 vhcurveto
            -16 hlineto
            -14 -6 5 12 hvcurveto
            143 vlineto
            12 6 6 14 vhcurveto
            16 hlineto
            14 6 -6 -12 hvcurveto
            510 -402 rmoveto
            -12 -6 -5 -14 vhcurveto
            -16 hlineto
            -14 -6 5 12 hvcurveto
            143 vlineto
            12 6 6 14 vhcurveto
            16 hlineto
            14 6 -6 -12 hvcurveto
            -164 379 rmoveto
            -361 -642 rlineto
            125 hlineto
            363 642 rlineto
            return
          </CharString>
          <CharString index="158">
            162 callgsubr
            465 194 rmoveto
            113 -770 -113 444 -58 vlineto
            -34 -4 -19 -17 -3 -25 rrcurveto
            183 callgsubr
            79 -33 37 -63 9 317 callsubr
          </CharString>
          <CharString index="159">
            -107 callsubr
            -47 -73 callsubr
            -74 vlineto
            -44 callsubr
            return
          </CharString>
          <CharString index="160">
            -33 callsubr
            -91 callsubr
            109 callsubr
            -51 callgsubr
            endchar
          </CharString>
          <CharString index="161">
            205 callgsubr
            75 -69 callsubr
            return
          </CharString>
          <CharString index="162">
            -57 -74 vlineto
            -53 callgsubr
            return
          </CharString>
          <CharString index="163">
            167 callgsubr
            -304 vlineto
            27 callsubr
            return
          </CharString>
          <CharString index="164">
            hhcurveto
            61 265 callgsubr
          </CharString>
          <CharString index="165">
            vlineto
            27 callsubr
            -136 -73 callsubr
            -14 196 callgsubr
            return
          </CharString>
          <CharString index="166">
            1 296 400 rmoveto
            170 callsubr
            97 63 callsubr
            -352 vmoveto
            170 callsubr
            106 63 callsubr
            167 267 rmoveto
            75 -40 49 -107 vhcurveto
            -134 142 callgsubr
            -78 vlineto
            -52 9 -40 38 -21 vhcurveto
            -38 -17 -9 -35 -51 vvcurveto
            -100 333 callsubr
            100 vlineto
            51 -9 35 -39 17 vhcurveto
            39 21 9 40 52 vvcurveto
            endchar
          </CharString>
          <CharString index="167">
            176 callsubr
            -185 vlineto
            -42 callgsubr
            73 546 vlineto
            -768 -338 22 callsubr
            969 451 rmoveto
            -1251 72 callsubr
            80 callgsubr
          </CharString>
          <CharString index="168">
            -314 vlineto
            -78 callsubr
            return
          </CharString>
          <CharString index="169">
            -314 -104 callsubr
            return
          </CharString>
          <CharString index="170">
            -40 callsubr
            44 -55 callgsubr
            return
          </CharString>
          <CharString index="171">
            rmoveto
            -152 -130 152 hlineto
            -240 130 rmoveto
            -152 -130 152 hlineto
            return
          </CharString>
          <CharString index="172">
            rmoveto
            40 callsubr
            return
          </CharString>
          <CharString index="173">
            152 callgsubr
            11 103 -38 callgsubr
            -140 301 callsubr
            65 -81 vlineto
            -105 callsubr
            -666 407 rmoveto
            336 callsubr
            vlineto
            171 callsubr
            323 300 callsubr
          </CharString>
          <CharString index="174">
            -20 callsubr
            -170 return
          </CharString>
          <CharString index="175">
            128 callsubr
            -128 131 callsubr
            return
          </CharString>
          <CharString index="176">
            -314 vlineto
            194 callsubr
            return
          </CharString>
          <CharString index="177">
            203 callsubr
            220 93 -188 -102 callgsubr
            115 -87 callgsubr
            145 20 callsubr
            -4 -61 vlineto
            -61 -36 -20 -55 hvcurveto
            -24 94 20 vlineto
            16 5 7 18 vhcurveto
            41 -52 85 121 hlineto
            56 -28 29 -72 vhcurveto
            -155 140 callgsubr
          </CharString>
          <CharString index="178">
            rmoveto
            -280 -5 callgsubr
            12 hvcurveto
            14 vlineto
            13 -106 callsubr
            191 129 339 callgsubr
            -41 -74 hlineto
            -109 -31 -29 -63 hvcurveto
            -41 vlineto
            -63 31 -30 -11 callsubr
            69 hlineto
            15 8 -4 -13 hvcurveto
            -28 vlineto
            -13 -8 -4 -15 vhcurveto
            -39 32 -170 -232 170 111 92 hlineto
            109 31 29 63 hvcurveto
            40 vlineto
            7 -1 6 -1 6 vhcurveto
            72 -80 hlineto
            -285 -241 rlineto
            149 hlineto
            136 121 rlineto
            -62 -96 callgsubr
          </CharString>
          <CharString index="179">
            77 callsubr
            45 return
          </CharString>
          <CharString index="180">
            -359 -97 callgsubr
            return
          </CharString>
          <CharString index="181">
            hlineto
            346 callgsubr
            return
          </CharString>
          <CharString index="182">
            -314 hlineto
            194 callsubr
            return
          </CharString>
          <CharString index="183">
            107 callsubr
            -130 vlineto
            -92 callgsubr
            return
          </CharString>
          <CharString index="184">
            22 callgsubr
            335 -87 callgsubr
            return
          </CharString>
          <CharString index="185">
            hlineto
            -77 callgsubr
            return
          </CharString>
          <CharString index="186">
            hvcurveto
            -4 hlineto
            -4 27 -7 29 -6 27 -8 35 rcurveline
            -154 hlineto
            48 -63 38 -50 22 -30 41 -44 rlinecurve
            -5 hlineto
            -46 46 -36 33 -58 52 -63 56 rcurveline
            -200 hlineto
            return
          </CharString>
          <CharString index="187">
            vhcurveto
            13 -74 callsubr
            return
          </CharString>
          <CharString index="188">
            -104 callgsubr
            154 60 -359 -96 callgsubr
          </CharString>
          <CharString index="189">
            -113 60 -324 hlineto
            -95 callsubr
            return
          </CharString>
          <CharString index="190">
            -104 callsubr
            125 158 callsubr
            return
          </CharString>
          <CharString index="191">
            vlineto
            42 callsubr
            return
          </CharString>
          <CharString index="192">
            94 callsubr
            39 9 callgsubr
            return
          </CharString>
          <CharString index="193">
            73 -31 34 -109 vhcurveto
            return
          </CharString>
          <CharString index="194">
            rmoveto
            194 callsubr
            -68 -102 callgsubr
            44 81 callgsubr
            113 -33 -102 callgsubr
            55 vlineto
            26 8 8 26 vhcurveto
            80 hlineto
            3 callsubr
            -574 -113 66 hlineto
            194 callgsubr
            -86 -73 callsubr
            -96 vlineto
            -72 34 -34 74 -1 vhcurveto
            185 callgsubr
          </CharString>
          <CharString index="195">
            hlineto
            -72 -50 -30 -82 hvcurveto
            -70 170 33 vlineto
            30 6 6 30 vhcurveto
            38 hlineto
            30 6 -6 -30 hvcurveto
            -67 268 callgsubr
            return
          </CharString>
          <CharString index="196">
            168 callsubr
            52 30 24 40 9 hvcurveto
            -64 return
          </CharString>
          <CharString index="197">
            -42 callsubr
            -164 -102 callgsubr
            75 -69 callsubr
            -458 hlineto
            -107 callsubr
            -91 -103 callgsubr
            85 60 -85 vlineto
            -44 callsubr
            214 hlineto
            return
          </CharString>
          <CharString index="198">
            -104 callsubr
            97 -101 callsubr
            45 hlineto
            return
          </CharString>
          <CharString index="199">
            77 callgsubr
            170 499 return
          </CharString>
          <CharString index="200">
            98 -72 callgsubr
            -82 -312 97 47 113 -497 -113 280 -97 342 callgsubr
            -120 vlineto
            -80 callgsubr
            289 callsubr
            114 74 147 callsubr
            return
          </CharString>
          <CharString index="201">
            -55 callsubr
            114 -60 callgsubr
            return
          </CharString>
          <CharString index="202">
            -86 -45 -34 -93 hvcurveto
            return
          </CharString>
          <CharString index="203">
            65 callsubr
            -160 vlineto
            -80 callgsubr
            44 hlineto
            27 16 5 11 10 hvcurveto
            -87 -98 vlineto
            49 callgsubr
            70 -121 150 505 -150 -76 hlineto
            194 callsubr
            -42 -102 callgsubr
            120 25 callgsubr
          </CharString>
          <CharString index="204">
            129 callgsubr
            117 vlineto
            25 -32 27 -34 10 -12 50 -60 rcurveline
            -2 -1 -3 -1 -4 hhcurveto
            293 451 rmoveto
            -617 -113 387 -204 hlineto
            -89 6 -14 -44 callgsubr
            20 hlineto
            -84 350 callsubr
            91 154 rlineto
            -66 callsubr
          </CharString>
          <CharString index="205">
            -83 callsubr
            -67 return
          </CharString>
          <CharString index="206">
            13 callsubr
            -170 return
          </CharString>
          <CharString index="207">
            -15 -8 -7 -17 vhcurveto
            return
          </CharString>
          <CharString index="208">
            rmoveto
            -78 callgsubr
            -476 285 callsubr
            return
          </CharString>
          <CharString index="209">
            137 callsubr
            -75 return
          </CharString>
          <CharString index="210">
            336 callsubr
            147 callgsubr
            -357 hlineto
            114 callgsubr
            return
          </CharString>
          <CharString index="211">
            rmoveto
            194 callsubr
            -162 hlineto
            291 callsubr
            82 hlineto
            3 callsubr
            -668 232 callsubr
            95 callgsubr
            529 60 vlineto
            endchar
          </CharString>
          <CharString index="212">
            37 callgsubr
            322 hmoveto
            113 return
          </CharString>
          <CharString index="213">
            48 231 360 callsubr
            -58 hlineto
            -43 9 -31 0 vhcurveto
            0 -13 33 -36 34 vhcurveto
            -95 -50 rmoveto
            191 callsubr
            79 -73 rlineto
            -96 -102 callgsubr
            return
          </CharString>
          <CharString index="214">
            -96 30 callsubr
            return
          </CharString>
          <CharString index="215">
            -129 -70 callsubr
            return
          </CharString>
          <CharString index="216">
            122 -83 callgsubr
            return
          </CharString>
          <CharString index="217">
            rmoveto
            -756 -113 526 -197 -78 302 callgsubr
            -44 -43 callgsubr
            17 -170 -27 vlineto
            -80 callgsubr
            86 hlineto
            86 45 17 44 19 hvcurveto
            56 hlineto
            -297 -299 rlineto
            160 hlineto
            170 172 rlineto
            121 callgsubr
          </CharString>
          <CharString index="218">
            170 callgsubr
            505 371 rmoveto
            -766 288 callgsubr
            -72 -103 callgsubr
            244 80 146 callsubr
          </CharString>
          <CharString index="219">
            -70 callsubr
            299 hmoveto
            -166 hlineto
            130 -150 rlineto
            166 hlineto
            endchar
          </CharString>
          <CharString index="220">
            hlineto
            -9 263 callsubr
            return
          </CharString>
          <CharString index="221">
            rmoveto
            240 242 rlineto
            160 vlineto
            -400 -402 rlineto
            32 419 152 callgsubr
            45 -52 213 callsubr
            -170 -10 rmoveto
            -95 callsubr
            62 130 113 -398 340 callgsubr
            588 231 callgsubr
          </CharString>
          <CharString index="222">
            5 callsubr
            154 return
          </CharString>
          <CharString index="223">
            65 callsubr
            -238 vlineto
            return
          </CharString>
          <CharString index="224">
            181 callgsubr
            endchar
          </CharString>
          <CharString index="225">
            80 182 callgsubr
            return
          </CharString>
          <CharString index="226">
            -54 callsubr
            348 -40 callsubr
            return
          </CharString>
          <CharString index="227">
            -104 callsubr
            24 -101 callsubr
            45 hlineto
            return
          </CharString>
          <CharString index="228">
            -89 -41 -32 -74 hvcurveto
            return
          </CharString>
          <CharString index="229">
            rmoveto
            194 callsubr
            -29 hlineto
            -19 -4 9 15 hvcurveto
            120 14 callsubr
            29 199 callgsubr
            return
          </CharString>
          <CharString index="230">
            vhcurveto
            17 -55 callgsubr
            return
          </CharString>
          <CharString index="231">
            rmoveto
            -27 callgsubr
            36 hlineto
            -85 -138 rlineto
            169 hlineto
            91 143 rlineto
            130 vlineto
            -33 32 -11 30 -34 43 -41 51 rcurveline
            17 callgsubr
            170 -33 -46 callgsubr
            -220 314 rmoveto
            392 113 -392 hlineto
            endchar
          </CharString>
          <CharString index="232">
            vlineto
            -93 41 -34 120 vhcurveto
            82 callgsubr
          </CharString>
          <CharString index="233">
            hhcurveto
            82 callgsubr
          </CharString>
          <CharString index="234">
            72 callgsubr
            187 113 -134 -94 callsubr
            117 101 vlineto
            56 49 42 62 14 hvcurveto
            31 hlineto
            26 7 -7 -21 11 hvcurveto
            25 -47 -131 -160 rlineto
            201 hlineto
            91 112 rlineto
            return
          </CharString>
          <CharString index="235">
            vlineto
            -107 callsubr
            return
          </CharString>
          <CharString index="236">
            7 448 330 callsubr
            76 113 -544 239 callsubr
            -57 -93 128 callsubr
            288 callsubr
            93 -74 callsubr
            -23 -81 callsubr
            -52 113 callsubr
            11 -170 -59 vlineto
            -45 17 -17 30 -4 vhcurveto
            -5 vlineto
            -30 -4 -17 -18 -38 vvcurveto
            return
          </CharString>
          <CharString index="237">
            44 callgsubr
            306 hmoveto
            113 -611 242 callgsubr
            113 113 -83 277 callgsubr
          </CharString>
          <CharString index="238">
            -103 callgsubr
            122 return
          </CharString>
          <CharString index="239">
            10 callsubr
            -27 -54 callsubr
            return
          </CharString>
          <CharString index="240">
            -113 60 -324 return
          </CharString>
          <CharString index="241">
            -104 callsubr
            224 68 vlineto
            468 113 rmoveto
            -766 -113 60 -234 hlineto
            -95 callsubr
            234 68 146 callsubr
          </CharString>
          <CharString index="242">
            rmoveto
            -541 -113 311 -294 hlineto
            -92 callgsubr
            100 vlineto
            10 callgsubr
            -59 23 -33 49 -11 vhcurveto
            -99 -162 213 callgsubr
          </CharString>
          <CharString index="243">
            -67 callsubr
            -127 170 127 290 callgsubr
            return
          </CharString>
          <CharString index="244">
            -49 -75 hvcurveto
            -251 vlineto
            return
          </CharString>
          <CharString index="245">
            -170 -365 hlineto
            -95 callgsubr
            return
          </CharString>
          <CharString index="246">
            -186 182 callsubr
            217 -5 rmoveto
            -642 154 callsubr
          </CharString>
          <CharString index="247">
            vlineto
            -19 callsubr
            -206 vlineto
            -91 callsubr
            151 callsubr
            170 -67 callsubr
            -135 170 135 14 callsubr
            return
          </CharString>
          <CharString index="248">
            rmoveto
            234 callgsubr
            return
          </CharString>
          <CharString index="249">
            vlineto
            100 callsubr
            return
          </CharString>
          <CharString index="250">
            vlineto
            188 callgsubr
            217 -5 rmoveto
            -642 154 callsubr
          </CharString>
          <CharString index="251">
            -49 callgsubr
            73 return
          </CharString>
          <CharString index="252">
            -25 callsubr
            -170 -10 rmoveto
            179 callgsubr
            -50 277 rmoveto
            -113 538 231 callgsubr
          </CharString>
          <CharString index="253">
            -277 0 callgsubr
          </CharString>
          <CharString index="254">
            -114 -30 callgsubr
            return
          </CharString>
          <CharString index="255">
            137 rmoveto
            -47 -25 -17 -30 -4 hvcurveto
            183 callgsubr
            93 -45 34 -86 vhcurveto
            return
          </CharString>
          <CharString index="256">
            -81 -39 -38 -60 -32 3 -34 6 -50 hvcurveto
            -4 hlineto
            -9 30 -17 31 -20 30 -32 47 rcurveline
            -212 hlineto
            return
          </CharString>
          <CharString index="257">
            rmoveto
            134 hlineto
            208 callsubr
            -170 hlineto
            return
          </CharString>
          <CharString index="258">
            103 113 -50 -94 callsubr
            return
          </CharString>
          <CharString index="259">
            248 callgsubr
            -17 hlineto
            -18 -9 9 21 hvcurveto
            189 vlineto
            21 9 9 18 123 callsubr
            19 147 rmoveto
            return
          </CharString>
          <CharString index="260">
            -104 callgsubr
            54 78 -82 0 callgsubr
          </CharString>
          <CharString index="261">
            -97 callgsubr
            231 callgsubr
          </CharString>
          <CharString index="262">
            -92 callgsubr
            124 139 callgsubr
            -27 callgsubr
            71 hlineto
            35 25 14 22 11 hvcurveto
            -26 24 42 -10 67 83 callgsubr
            154 return
          </CharString>
          <CharString index="263">
            -22 callgsubr
            -276 192 callsubr
            84 -87 vlineto
            return
          </CharString>
          <CharString index="264">
            363 rmoveto
            -70 hlineto
            -71 callsubr
            70 hlineto
            -234 298 callsubr
            return
          </CharString>
          <CharString index="265">
            -36 callsubr
            18 20 callsubr
            return
          </CharString>
          <CharString index="266">
            hlineto
            -120 -41 -34 -93 hvcurveto
            return
          </CharString>
          <CharString index="267">
            vlineto
            -89 callgsubr
            return
          </CharString>
          <CharString index="268">
            34 -12 -29 20 -47 343 callgsubr
            -251 89 callsubr
            167 return
          </CharString>
          <CharString index="269">
            247 callgsubr
            -348 128 callsubr
            return
          </CharString>
          <CharString index="270">
            rmoveto
            -768 -113 538 -57 -240 -257 hlineto
            32 callgsubr
            70 73 callsubr
            vlineto
            endchar
          </CharString>
          <CharString index="271">
            -7 vhcurveto
            -95 -148 66 callgsubr
            return
          </CharString>
          <CharString index="272">
            -59 vlineto
            192 callgsubr
            return
          </CharString>
          <CharString index="273">
            -102 callgsubr
            97 return
          </CharString>
          <CharString index="274">
            -21 -9 -9 -18 vhcurveto
            return
          </CharString>
          <CharString index="275">
            217 callgsubr
            18 hlineto
            return
          </CharString>
          <CharString index="276">
            -113 60 189 callsubr
            return
          </CharString>
          <CharString index="277">
            -15 -8 -7 100 callgsubr
            return
          </CharString>
          <CharString index="278">
            -35 callsubr
            -357 hlineto
            114 callgsubr
            242 113 -218 -66 callgsubr
            return
          </CharString>
          <CharString index="279">
            -114 126 callgsubr
          </CharString>
          <CharString index="280">
            34 callsubr
            -109 vlineto
            -80 callgsubr
            143 -102 callsubr
            109 158 callgsubr
            return
          </CharString>
          <CharString index="281">
            hlineto
            -107 callsubr
            -160 vlineto
            -27 callgsubr
            61 hlineto
            27 17 5 11 9 hvcurveto
            -64 4 34 -30 102 hhcurveto
            return
          </CharString>
          <CharString index="282">
            -57 -39 -23 -65 hvcurveto
            -20 -5 vlineto
            30 -4 -25 17 -47 hhcurveto
            -165 225 callsubr
            return
          </CharString>
          <CharString index="283">
            rmoveto
            190 callgsubr
            return
          </CharString>
          <CharString index="284">
            -57 190 callgsubr
            return
          </CharString>
          <CharString index="285">
            18 305 351 rmoveto
            -72 -102 callgsubr
            154 95 329 callsubr
            -555 34 callsubr
            -129 vlineto
            -91 callsubr
            return
          </CharString>
          <CharString index="286">
            152 callgsubr
            16 -74 callsubr
            -110 -81 callsubr
            -16 -94 callsubr
            return
          </CharString>
          <CharString index="287">
            62 vvcurveto
            -51 callgsubr
            180 160 return
          </CharString>
          <CharString index="288">
            -242 40 642 330 callgsubr
            642 vlineto
            return
          </CharString>
          <CharString index="289">
            hlineto
            188 callgsubr
            return
          </CharString>
          <CharString index="290">
            -80 callgsubr
            24 hlineto
            27 16 5 11 10 hvcurveto
            -163 170 351 -170 -67 159 callgsubr
            128 -36 callsubr
            213 157 60 hlineto
            endchar
          </CharString>
          <CharString index="291">
            -80 callsubr
            70 -359 -96 callgsubr
          </CharString>
          <CharString index="292">
            179 hlineto
            93 157 rlineto
            -97 -96 callgsubr
          </CharString>
          <CharString index="293">
            -97 callgsubr
            hlineto
            endchar
          </CharString>
          <CharString index="294">
            732 215 rmoveto
            -19 -10 -5 -15 vhcurveto
            -18 -34 callgsubr
            45 hlineto
            -482 285 callsubr
            return
          </CharString>
          <CharString index="295">
            204 callgsubr
            529 60 vlineto
            endchar
          </CharString>
          <CharString index="296">
            190 callsubr
            335 -87 callgsubr
            return
          </CharString>
          <CharString index="297">
            -324 -6 callgsubr
            return
          </CharString>
          <CharString index="298">
            43 -9 31 0 vhcurveto
            0 13 -33 36 -34 vhcurveto
            return
          </CharString>
          <CharString index="299">
            -87 rmoveto
            239 callgsubr
            return
          </CharString>
          <CharString index="300">
            -11 -12 -6 -18 -24 vvcurveto
            return
          </CharString>
          <CharString index="301">
            -19 -69 callgsubr
            return
          </CharString>
          <CharString index="302">
            -107 callsubr
            -238 -103 callgsubr
            -57 callsubr
            return
          </CharString>
          <CharString index="303">
            -44 -6 hlineto
            -89 -41 -29 -67 hvcurveto
            -48 vlineto
            -33 17 -14 30 -3 vhcurveto
            -5 vlineto
            -30 -4 -17 -13 -34 vvcurveto
            -61 vlineto
            -67 41 -29 89 vhcurveto
            173 hlineto
            27 16 5 9 10 hvcurveto
            121 callgsubr
          </CharString>
          <CharString index="304">
            -9 callgsubr
            120 -87 callgsubr
            23 113 return
          </CharString>
          <CharString index="305">
            vlineto
            -91 callsubr
            69 280 callsubr
            return
          </CharString>
          <CharString index="306">
            -66 callgsubr
            294 return
          </CharString>
          <CharString index="307">
            -104 -104 callsubr
            return
          </CharString>
          <CharString index="308">
            -6 -9 -3 -11 -15 vvcurveto
            -57 vlineto
            -81 41 -26 74 vhcurveto
            77 hlineto
            27 16 5 11 10 hvcurveto
            -107 120 291 vlineto
            89 6 42 36 84 vvcurveto
            238 vlineto
            71 -35 27 -67 7 317 callsubr
          </CharString>
          <CharString index="309">
            rmoveto
            -422 -125 123 -517 175 517 124 hlineto
            endchar
          </CharString>
          <CharString index="310">
            rmoveto
            160 105 113 -556 -113 281 -57 -81 vlineto
            52 callsubr
            return
          </CharString>
          <CharString index="311">
            rmoveto
            -780 6 callsubr
            95 hlineto
            30 17 10 16 9 hvcurveto
            -18 22 31 -8 41 57 callsubr
          </CharString>
          <CharString index="312">
            -1 callgsubr
            206 -101 callsubr
            return
          </CharString>
          <CharString index="313">
            -103 callgsubr
            124 return
          </CharString>
          <CharString index="314">
            210 hmoveto
            499 -170 -499 vlineto
            return
          </CharString>
          <CharString index="315">
            133 150 rlineto
            return
          </CharString>
          <CharString index="316">
            14 callgsubr
            305 -87 callgsubr
            52 238 callgsubr
            return
          </CharString>
          <CharString index="317">
            vvcurveto
            127 callgsubr
          </CharString>
          <CharString index="318">
            82 -50 30 -72 vhcurveto
            -400 hlineto
            -72 -50 -30 -82 hvcurveto
            -70 170 33 vlineto
            30 6 6 30 vhcurveto
            232 hlineto
            30 6 -6 -30 hvcurveto
            -67 268 callgsubr
            return
          </CharString>
          <CharString index="319">
            -100 219 callgsubr
            return
          </CharString>
          <CharString index="320">
            hlineto
            -107 callgsubr
            return
          </CharString>
          <CharString index="321">
            -13 callgsubr
            518 return
          </CharString>
          <CharString index="322">
            hlineto
            110 51 -27 callsubr
            return
          </CharString>
          <CharString index="323">
            -103 callgsubr
            54 return
          </CharString>
          <CharString index="324">
            46 callgsubr
            -60 -73 callsubr
            -60 193 callgsubr
            293 113 -260 -102 callgsubr
            return
          </CharString>
          <CharString index="325">
            10 callsubr
            -67 412 348 callsubr
            -642 295 vlineto
            107 40 49 75 hvcurveto
            394 -13 callsubr
            endchar
          </CharString>
          <CharString index="326">
            rmoveto
            -15 263 callsubr
            34 -36 callsubr
            8 hlineto
            15 10 -6 -18 hvcurveto
            -54 vlineto
            return
          </CharString>
          <CharString index="327">
            rmoveto
            157 hlineto
            53 69 53 -69 345 callgsubr
            -133 150 rlineto
            -154 hlineto
            endchar
          </CharString>
          <CharString index="328">
            vlineto
            -42 callsubr
            -23 -102 callgsubr
            120 -87 callgsubr
            return
          </CharString>
          <CharString index="329">
            325 642 rmoveto
            -345 -113 345 hlineto
            return
          </CharString>
          <CharString index="330">
            hlineto
            -67 -38 -13 -27 -19 hvcurveto
            -90 97 return
          </CharString>
          <CharString index="331">
            -52 -30 -24 -40 -9 hvcurveto
            64 -167 return
          </CharString>
          <CharString index="332">
            88 callsubr
            113 -60 return
          </CharString>
          <CharString index="333">
            -86 287 702 rmoveto
            -307 -762 rlineto
            144 hlineto
            307 762 rlineto
            endchar
          </CharString>
          <CharString index="334">
            -56 21 -34 45 -12 vhcurveto
            -100 -163 rlineto
            return
          </CharString>
          <CharString index="335">
            37 callsubr
            170 hlineto
            return
          </CharString>
          <CharString index="336">
            -30 callgsubr
            68 147 callsubr
            return
          </CharString>
          <CharString index="337">
            vhcurveto
            -96 -150 rlineto
            139 hlineto
            298 callgsubr
            return
          </CharString>
          <CharString index="338">
            240 callgsubr
            324 return
          </CharString>
          <CharString index="339">
            1 callgsubr
            263 callgsubr
            91 hlineto
            305 callsubr
            return
          </CharString>
          <CharString index="340">
            -170 -64 vlineto
            return
          </CharString>
          <CharString index="341">
            vlineto
            -96 callsubr
            return
          </CharString>
          <CharString index="342">
            225 rmoveto
            -42 callsubr
            -149 -100 callgsubr
            64 -6 callsubr
            82 hlineto
            return
          </CharString>
          <CharString index="343">
            rmoveto
            125 -63 98 -170 -98 -55 -125 55 -250 -28 callgsubr
            85 125 -37 -54 callsubr
            227 vlineto
            endchar
          </CharString>
          <CharString index="344">
            472 207 callgsubr
            return
          </CharString>
          <CharString index="345">
            194 callsubr
            -46 -102 callgsubr
            49 -87 callgsubr
            return
          </CharString>
          <CharString index="346">
            -113 298 return
          </CharString>
          <CharString index="347">
            68 callgsubr
            -64 hlineto
            -70 -38 -14 -30 -18 hvcurveto
            return
          </CharString>
          <CharString index="348">
            225 253 callsubr
            27 return
          </CharString>
          <CharString index="349">
            669 rmoveto
            101 106 -101 hlineto
            -66 134 rmoveto
            -107 callsubr
            -170 170 154 -101 callsubr
            72 103 hlineto
            endchar
          </CharString>
          <CharString index="350">
            321 callsubr
            114 -101 callsubr
            11 103 -38 callgsubr
            return
          </CharString>
          <CharString index="351">
            67 callsubr
            10 rmoveto
            -42 callsubr
            return
          </CharString>
          <CharString index="352">
            hlineto
            -141 201 rlineto
            -203 hlineto
            58 -75 39 -50 36 -40 45 -36 rlinecurve
            return
          </CharString>
          <CharString index="353">
            70 callgsubr
            18 9 -9 -21 hvcurveto
            return
          </CharString>
          <CharString index="354">
            -97 35 callgsubr
            return
          </CharString>
          <CharString index="355">
            0 vhcurveto
            0 -45 53 -34 43 vhcurveto
            return
          </CharString>
          <CharString index="356">
            -98 128 callsubr
            return
          </CharString>
          <CharString index="357">
            43 vlineto
            126 54 32 83 hvcurveto
            return
          </CharString>
          <CharString index="358">
            -107 callsubr
            -56 -24 callgsubr
            return
          </CharString>
          <CharString index="359">
            rmoveto
            -176 hlineto
            -94 -227 rlineto
            397 -170 -669 170 233 vlineto
            93 -233 rlineto
            177 hlineto
            -107 253 rlineto
            endchar
          </CharString>
          <CharString index="360">
            125 -34 callsubr
            return
          </CharString>
          <CharString index="361">
            160 83 113 return
          </CharString>
          <CharString index="362">
            -218 -103 callgsubr
            127 callgsubr
          </CharString>
          <CharString index="363">
            rmoveto
            45 hlineto
            127 223 rlineto
            90 -172 vlineto
            return
          </CharString>
          <CharString index="364">
            458 642 rmoveto
            -478 -113 478 hlineto
            return
          </CharString>
          <CharString index="365">
            286 -57 -58 return
          </CharString>
          <CharString index="366">
            vlineto
            -59 23 -33 49 -11 vhcurveto
            -99 -162 rlineto
            179 hlineto
            95 callgsubr
            335 -87 callgsubr
            return
          </CharString>
          <CharString index="367">
            -101 callsubr
            45 hlineto
            460 283 rmoveto
            -748 -113 518 281 callsubr
            return
          </CharString>
          <CharString index="368">
            rmoveto
            -411 -125 163 callgsubr
            endchar
          </CharString>
          <CharString index="369">
            rmoveto
            167 callgsubr
            265 callsubr
            return
          </CharString>
          <CharString index="370">
            -8 5 15 hvcurveto
            return
          </CharString>
          <CharString index="371">
            -75 417 642 rmoveto
            -407 -135 220 hlineto
            -189 -507 rlineto
            181 hlineto
            195 547 rlineto
            endchar
          </CharString>
          <CharString index="372">
            -294 vlineto
            194 callsubr
            return
          </CharString>
          <CharString index="373">
            290 callsubr
            -140 123 callgsubr
            return
          </CharString>
          <CharString index="374">
            9 callgsubr
            -230 return
          </CharString>
          <CharString index="375">
            -107 vhcurveto
            -61 -54 callsubr
            return
          </CharString>
          <CharString index="376">
            12 2 3 9 hvcurveto
            return
          </CharString>
          <CharString index="377">
            -67 callsubr
            -137 170 137 14 callsubr
            47 return
          </CharString>
          <CharString index="378">
            312 callsubr
            94 -101 callsubr
            45 hlineto
            return
          </CharString>
          <CharString index="379">
            208 158 rmoveto
            42 callsubr
            -40 -113 24 20 callsubr
            -295 152 67 return
          </CharString>
          <CharString index="380">
            -95 callsubr
            114 138 113 -138 97 vlineto
            endchar
          </CharString>
          <CharString index="381">
            249 callsubr
            -60 216 callsubr
            return
          </CharString>
          <CharString index="382">
            vvcurveto
            -100 -15 callgsubr
          </CharString>
          <CharString index="383">
            168 callsubr
            47 29 20 34 12 hvcurveto
            return
          </CharString>
          <CharString index="384">
            215 rmoveto
            -78 callgsubr
            return
          </CharString>
          <CharString index="385">
            -23 494 308 callgsubr
            -160 vlineto
            return
          </CharString>
          <CharString index="386">
            vlineto
            -27 callgsubr
            170 hlineto
            15 269 callsubr
            -83 -96 callgsubr
          </CharString>
          <CharString index="387">
            hlineto
            27 16 5 11 10 hvcurveto
            -106 170 return
          </CharString>
          <CharString index="388">
            -57 -328 hlineto
            -107 callsubr
            return
          </CharString>
          <CharString index="389">
            -113 64 328 callsubr
            return
          </CharString>
          <CharString index="390">
            -113 281 -57 -81 return
          </CharString>
          <CharString index="391">
            24 callgsubr
            -36 return
          </CharString>
          <CharString index="392">
            200 callsubr
            84 vlineto
            15 8 5 15 vhcurveto
            45 hlineto
            return
          </CharString>
          <CharString index="393">
            -107 callsubr
            -160 322 callgsubr
            return
          </CharString>
          <CharString index="394">
            40 -9 -30 24 -52 343 callgsubr
            return
          </CharString>
          <CharString index="395">
            -50 vlineto
            -91 callsubr
            return
          </CharString>
          <CharString index="396">
            68 -102 callsubr
            return
          </CharString>
          <CharString index="397">
            114 38 34 65 hvcurveto
            93 return
          </CharString>
          <CharString index="398">
            -105 callsubr
            44 -6 callsubr
            return
          </CharString>
          <CharString index="399">
            472 176 callsubr
            return
          </CharString>
          <CharString index="400">
            285 -22 callgsubr
            return
          </CharString>
          <CharString index="401">
            439 300 rmoveto
            57 337 callsubr
            -57 vlineto
            return
          </CharString>
          <CharString index="402">
            158 callgsubr
            176 60 vlineto
            endchar
          </CharString>
          <CharString index="403">
            -17 -6 vlineto
            308 callsubr
          </CharString>
          <CharString index="404">
            473 642 rmoveto
            -493 -113 493 hlineto
            return
          </CharString>
          <CharString index="405">
            -132 rmoveto
            -56 callsubr
            return
          </CharString>
          <CharString index="406">
            rmoveto
            254 callsubr
            return
          </CharString>
          <CharString index="407">
            113 hlineto
            endchar
          </CharString>
          <CharString index="408">
            vlineto
            33 callgsubr
            122 206 rlineto
            return
          </CharString>
          <CharString index="409">
            rmoveto
            159 hlineto
            -107 153 107 151 rlineto
            -159 hlineto
            -110 -151 rlineto
            return
          </CharString>
          <CharString index="410">
            -174 283 642 rmoveto
            -265 -125 90 -517 175 hlineto
            endchar
          </CharString>
          <CharString index="411">
            170 291 -170 -56 return
          </CharString>
          <CharString index="412">
            -96 -158 rlineto
            179 hlineto
            return
          </CharString>
          <CharString index="413">
            rmoveto
            -106 101 106 vlineto
            endchar
          </CharString>
          <CharString index="414">
            206 callsubr
            68 return
          </CharString>
          <CharString index="415">
            90 callgsubr
            hlineto
            endchar
          </CharString>
          <CharString index="416">
            rmoveto
            -162 -130 162 hlineto
            return
          </CharString>
          <CharString index="417">
            122 hlineto
            109 31 return
          </CharString>
          <CharString index="418">
            119 561 rmoveto
            8 4 4 10 vhcurveto
            11 hlineto
            9 4 -4 -8 hvcurveto
            return
          </CharString>
          <CharString index="419">
            278 215 -104 callsubr
            return
          </CharString>
          <CharString index="420">
            vlineto
            86 callsubr
            -127 33 hlineto
            10 -2 8 -4 7 vhcurveto
            return
          </CharString>
          <CharString index="421">
            -11 callgsubr
            -155 -113 102 -74 callsubr
            return
          </CharString>
          <CharString index="422">
            278 215 rmoveto
            -89 callgsubr
            return
          </CharString>
          <CharString index="423">
            -113 179 -59 return
          </CharString>
          <CharString index="424">
            vhcurveto
            59 vlineto
            endchar
          </CharString>
          <CharString index="425">
            -147 rmoveto
            177 175 rlineto
            151 vlineto
            -340 -326 rlineto
            return
          </CharString>
          <CharString index="426">
            -15 263 callsubr
            40 -162 -56 vlineto
            -73 26 -44 -11 callsubr
            return
          </CharString>
          <CharString index="427">
            -144 -104 callsubr
            return
          </CharString>
          <CharString index="428">
            235 -50 callgsubr
            return
          </CharString>
          <CharString index="429">
            -91 callsubr
            152 -83 callgsubr
            return
          </CharString>
          <CharString index="430">
            -95 callsubr
            77 return
          </CharString>
          <CharString index="431">
            hlineto
            4 7 2 8 10 vvcurveto
            87 vlineto
            10 -2 8 -4 7 vhcurveto
            return
          </CharString>
          <CharString index="432">
            -154 20 245 rmoveto
            303 115 -303 hlineto
            endchar
          </CharString>
          <CharString index="433">
            -252 vlineto
            -91 callsubr
            return
          </CharString>
          <CharString index="434">
            669 -170 -669 vlineto
            return
          </CharString>
          <CharString index="435">
            hlineto
            -4 -11 -2 -12 -15 vvcurveto
            return
          </CharString>
          <CharString index="436">
            vlineto
            3 callsubr
            return
          </CharString>
          <CharString index="437">
            369 rmoveto
            160 return
          </CharString>
          <CharString index="438">
            hlineto
            31 17 10 return
          </CharString>
          <CharString index="439">
            hhcurveto
            -54 callgsubr
            529 return
          </CharString>
          <CharString index="440">
            -28 callgsubr
            134 -13 callgsubr
            return
          </CharString>
          <CharString index="441" raw="1">
            250af702 d5fb0207 2e0b 
          </CharString>
          <CharString index="442">
            223 rlineto
            90 -172 vlineto
            endchar
          </CharString>
          <CharString index="443">
            -113 249 return
          </CharString>
          <CharString index="444">
            -40 callsubr
            36 -55 callgsubr
            return
          </CharString>
          <CharString index="445">
            vlineto
            194 callsubr
            -46 -102 callgsubr
            return
          </CharString>
          <CharString index="446">
            vlineto
            346 callgsubr
            return
          </CharString>
          <CharString index="447">
            rmoveto
            483 125 -483 hlineto
            return
          </CharString>
          <CharString index="448">
            vlineto
            -108 -3 -37 -35 -89 vvcurveto
            return
          </CharString>
          <CharString index="449">
            hvcurveto
            -47 -81 callsubr
            return
          </CharString>
          <CharString index="450">
            rmoveto
            -56 callsubr
            79 return
          </CharString>
          <CharString index="451">
            7 -1 7 vhcurveto
            return
          </CharString>
          <CharString index="452">
            -113 288 return
          </CharString>
          <CharString index="453">
            501 642 rmoveto
            -521 -113 521 hlineto
            return
          </CharString>
          <CharString index="454">
            rmoveto
            113 -606 239 callsubr
            -97 -98 vlineto
            return
          </CharString>
          <CharString index="455">
            67 -55 callgsubr
            -267 137 rmoveto
            return
          </CharString>
          <CharString index="456">
            -36 callsubr
            endchar
          </CharString>
          <CharString index="457">
            -138 rlineto
            179 hlineto
            return
          </CharString>
          <CharString index="458">
            -167 -499 170 return
          </CharString>
          <CharString index="459">
            -7 vhcurveto
            -95 -148 rlineto
            return
          </CharString>
          <CharString index="460">
            499 vlineto
            endchar
          </CharString>
          <CharString index="461">
            -338 129 callgsubr
            314 75 return
          </CharString>
          <CharString index="462">
            431 330 callsubr
            return
          </CharString>
          <CharString index="463">
            345 callsubr
            -97 -98 hlineto
            return
          </CharString>
          <CharString index="464">
            hlineto
            -127 -223 rlineto
            -90 return
          </CharString>
          <CharString index="465">
            283 rmoveto
            -1001 -113 return
          </CharString>
          <CharString index="466">
            vhcurveto
            -96 -150 rlineto
            return
          </CharString>
          <CharString index="467">
            529 rmoveto
            109 return
          </CharString>
          <CharString index="468">
            rmoveto
            71 -46 40 -25 70 -35 rrcurveto
            172 return
          </CharString>
          <CharString index="469">
            rlineto
            82 370 rmoveto
            -89 callgsubr
            return
          </CharString>
          <CharString index="470">
            rmoveto
            176 120 -176 hlineto
            endchar
          </CharString>
          <CharString index="471">
            hvcurveto
            11 -101 callsubr
            endchar
          </CharString>
        <CharString name=".notdef">
          13 0 vmoveto
          502 701 -502 hlineto
          51 -49 rmoveto
          400 -603 -400 hlineto
          200 253 rmoveto
          105 -209 rlineto
          60 hlineto
          -135 254 135 261 rlineto
          -60 hlineto
          -100 -206 rlineto
          -4 hlineto
          -105 206 rlineto
          -60 hlineto
          134 -255 -134 -260 rlineto
          60 hlineto
          100 209 rlineto
          endchar
        </CharString>
        <CharString name="A">
          46 220 220 -23 callgsubr
        </CharString>
        <CharString name="AE">
          273 259 235 rmoveto
          110 296 rlineto
          -296 vlineto
          165 -110 rmoveto
          136 181 125 -181 131 210 125 -489 vlineto
          -255 -642 rlineto
          172 hlineto
          43 115 rlineto
          154 -115 384 125 hlineto
          endchar
        </CharString>
        <CharString name="Aacute">
          46 474 825 49 callsubr
          -121 -455 -23 callgsubr
        </CharString>
        <CharString name="Abreve">
          46 321 675 rmoveto
          107 40 49 75 hvcurveto
          26 -150 108 callgsubr
          -1 -455 -23 callgsubr
        </CharString>
        <CharString name="Acircumflex">
          46 271 744 47 callgsubr
          2 -455 -23 callgsubr
        </CharString>
        <CharString name="Adieresis">
          46 467 805 64 callsubr
          -7 -455 -23 callgsubr
        </CharString>
        <CharString name="Agrave">
          46 331 675 133 callgsubr
          23 -455 -23 callgsubr
        </CharString>
        <CharString name="Amacron">
          46 466 781 254 callgsubr
          -246 -455 -23 callgsubr
        </CharString>
        <CharString name="Aogonek">
          46 220 220 rmoveto
          51 231 49 -231 rlineto
          152 -397 rmoveto
          117 callgsubr
          129 -6 hlineto
          -161 627 rlineto
          -213 hlineto
          -165 -642 rlineto
          172 hlineto
          21 96 rlineto
          154 hlineto
          20 -96 rlineto
          87 -17 -6 hlineto
          308 callsubr
        </CharString>
        <CharString name="Aring">
          46 233 778 34 callgsubr
          -9 -454 -23 callgsubr
        </CharString>
        <CharString name="Atilde">
          46 198 706 rmoveto
          208 callgsubr
          21 callsubr
          vlineto
          22 -455 -23 callgsubr
        </CharString>
        <CharString name="B">
          19 40 642 rmoveto
          -642 294 vlineto
          107 40 49 75 hvcurveto
          96 vlineto
          51 -9 35 -39 17 vhcurveto
          39 21 9 40 52 vvcurveto
          82 -13 callsubr
          -25 -505 10 callsubr
          -72 149 72 -55 callgsubr
          159 vmoveto
          100 callsubr
          -72 148 72 186 callgsubr
        </CharString>
        <CharString name="C">
          -2 470 402 9 callsubr
        </CharString>
        <CharString name="CR">
          -497 endchar
        </CharString>
        <CharString name="Cacute">
          -2 450 825 49 callsubr
          153 -273 9 callsubr
        </CharString>
        <CharString name="Ccaron">
          -2 327 675 1 callsubr
          297 -273 9 callsubr
        </CharString>
        <CharString name="Ccedilla">
          -2 170 -123 10 callsubr
          -53 -115 91 -13 callgsubr
          90 -160 vlineto
          300 448 9 callsubr
        </CharString>
        <CharString name="D">
          32 317 137 218 callsubr
        </CharString>
        <CharString name="Dcaron">
          32 337 675 1 callsubr
          134 -538 218 callsubr
        </CharString>
        <CharString name="Dcroat">
          40 317 248 callgsubr
          -67 144 55 115 -55 133 67 -55 callgsubr
          -267 147 rmoveto
          -258 -55 -115 55 -269 295 vlineto
          107 40 49 75 hvcurveto
          394 -13 callsubr
          endchar
        </CharString>
        <CharString name="E">
          -48 215 125 rmoveto
          136 64 callgsubr
          vlineto
          endchar
        </CharString>
        <CharString name="Eacute">
          -48 432 825 49 callsubr
          -84 -550 rmoveto
          136 64 callgsubr
          vlineto
          endchar
        </CharString>
        <CharString name="Ecaron">
          -48 316 675 1 callsubr
          53 -414 rmoveto
          64 callgsubr
          -219 hlineto
          endchar
        </CharString>
        <CharString name="Ecircumflex">
          -48 236 744 47 callgsubr
          32 -414 rmoveto
          64 callgsubr
          -219 hlineto
          endchar
        </CharString>
        <CharString name="Edieresis">
          3 430 805 64 callsubr
          25 -550 rmoveto
          136 64 callgsubr
          vlineto
          endchar
        </CharString>
        <CharString name="Edotaccent">
          -48 320 805 309 callsubr
          -105 -550 rmoveto
          136 64 callgsubr
          vlineto
          endchar
        </CharString>
        <CharString name="Egrave">
          -48 302 675 133 callgsubr
          47 -550 rmoveto
          136 64 callgsubr
          vlineto
          endchar
        </CharString>
        <CharString name="Emacron">
          -48 425 781 254 callgsubr
          -210 -550 rmoveto
          136 64 callgsubr
          vlineto
          endchar
        </CharString>
        <CharString name="Eogonek">
          -48 362 -177 rmoveto
          117 callgsubr
          129 -1 110 -219 136 181 125 -181 131 210 125 -385 -642 304 -17 -6 hlineto
          308 callsubr
        </CharString>
        <CharString name="Eth">
          30 317 341 callgsubr
          -67 154 55 115 -55 143 348 callsubr
          -258 -55 -115 55 -269 295 vlineto
          107 40 49 75 hvcurveto
          394 -13 callsubr
          endchar
        </CharString>
        <CharString name="Euro">
          19 491 402 rmoveto
          116 -13 callsubr
          -141 142 callgsubr
          -85 -41 -96 41 -32 -41 -96 41 -85 -28 callgsubr
          141 -13 callgsubr
          112 -175 -99 142 callsubr
          -35 -54 callsubr
          72 59 96 -59 32 59 96 -59 72 -40 callsubr
          35 -55 callgsubr
          -103 vlineto
          endchar
        </CharString>
        <CharString name="F">
          -57 425 517 rmoveto
          125 -385 317 callgsubr
          246 182 115 -182 156 vlineto
          endchar
        </CharString>
        <CharString name="G">
          4 471 422 54 callgsubr
        </CharString>
        <CharString name="Gbreve">
          4 303 675 rmoveto
          107 40 49 75 hvcurveto
          26 -150 108 callgsubr
          268 -253 54 callgsubr
        </CharString>
        <CharString name="H">
          53 338 642 rmoveto
          -263 -126 263 -172 -642 172 254 126 -254 172 642 vlineto
          endchar
        </CharString>
        <CharString name="I">
          181 callsubr
          endchar
        </CharString>
        <CharString name="Iacute">
          181 callsubr
          -159 33 150 callsubr
          endchar
        </CharString>
        <CharString name="Icircumflex">
          181 callsubr
          -298 33 220 callsubr
        </CharString>
        <CharString name="Idieresis">
          -242 -68 675 177 callgsubr
          -132 -163 330 callgsubr
          642 vlineto
          endchar
        </CharString>
        <CharString name="Idotaccent">
          181 callsubr
          -168 33 364 callgsubr
        </CharString>
        <CharString name="Igrave">
          181 callsubr
          -118 183 280 callgsubr
        </CharString>
        <CharString name="Imacron">
          181 callsubr
          -281 33 335 callgsubr
        </CharString>
        <CharString name="Iogonek">
          -242 142 -177 rmoveto
          117 callgsubr
          756 -175 -642 84 -17 -6 hlineto
          308 callsubr
        </CharString>
        <CharString name="J">
          -40 10 257 rmoveto
          -133 -28 callgsubr
          117 214 callsubr
          -175 -495 142 callsubr
          -11 -54 callsubr
          110 vlineto
          endchar
        </CharString>
        <CharString name="K">
          33 40 hmoveto
          175 642 -175 hlineto
          358 -314 rmoveto
          314 callgsubr
          188 hlineto
          endchar
        </CharString>
        <CharString name="L">
          -83 215 125 243 callgsubr
        </CharString>
        <CharString name="Lacute">
          -83 332 825 49 callsubr
          16 -550 243 callgsubr
        </CharString>
        <CharString name="Lcaron">
          -83 204 675 1 callsubr
          165 -550 243 callgsubr
        </CharString>
        <CharString name="Lslash">
          -63 225 125 rmoveto
          196 vlineto
          110 53 rlineto
          115 vlineto
          -110 -53 rlineto
          206 -175 -290 vlineto
          -89 -43 rlineto
          -115 vlineto
          89 43 rlineto
          -237 374 125 vlineto
          endchar
        </CharString>
        <CharString name="M">
          173 395 139 rmoveto
          80 269 rlineto
          -408 155 642 -191 vlineto
          -104 -343 -104 343 rlineto
          -191 -642 156 406 hlineto
          79 -267 rlineto
          endchar
        </CharString>
        <CharString name="N">
          36 333 642 117 callsubr
        </CharString>
        <CharString name="NULL">
          -497 endchar
        </CharString>
        <CharString name="Nacute">
          36 188 675 150 callsubr
          48 -183 117 callsubr
        </CharString>
        <CharString name="Ncaron">
          36 187 674 178 callgsubr
          279 -182 117 callsubr
        </CharString>
        <CharString name="Ntilde">
          36 333 642 181 callgsubr
          -146 33 rmoveto
          21 callsubr
          31 vlineto
          208 callgsubr
          endchar
        </CharString>
        <CharString name="O">
          19 304 147 -52 callgsubr
        </CharString>
        <CharString name="OE">
          243 332 341 callgsubr
          -42 119 callgsubr
          42 -55 callgsubr
          155 -390 rmoveto
          151 181 115 -181 146 210 115 -335 -20 vlineto
          13 -18 -23 7 -31 hhcurveto
          -78 hlineto
          2 callgsubr
          78 hlineto
          31 23 7 13 18 hvcurveto
          -20 344 115 vlineto
          endchar
        </CharString>
        <CharString name="Oacute">
          19 462 825 49 callsubr
          -25 -528 -52 callgsubr
        </CharString>
        <CharString name="Ocircumflex">
          19 256 744 47 callgsubr
          101 -528 -52 callgsubr
        </CharString>
        <CharString name="Odieresis">
          3 454 805 64 callsubr
          90 -528 -52 callgsubr
        </CharString>
        <CharString name="Ograve">
          19 322 675 133 callgsubr
          116 -528 -52 callgsubr
        </CharString>
        <CharString name="Ohungarumlaut">
          3 410 674 128 callgsubr
          84 -527 -52 callgsubr
        </CharString>
        <CharString name="Omacron">
          19 452 781 254 callgsubr
          -148 -528 -52 callgsubr
        </CharString>
        <CharString name="Oslash">
          19 314 341 callgsubr
          -62 -54 callsubr
          15 vlineto
          112 197 rlineto
          -112 156 rmoveto
          15 8 7 17 vhcurveto
          62 -55 callgsubr
          -26 vlineto
          -112 -197 rlineto
          290 380 rmoveto
          -74 hlineto
          -17 -29 rlineto
          6 -19 -23 3 -27 hhcurveto
          -148 142 callgsubr
          -394 vlineto
          -34 8 -29 19 -21 vhcurveto
          -34 -60 rlineto
          74 hlineto
          16 28 rlineto
          -5 18 21 -3 25 hhcurveto
          148 -13 callgsubr
          394 vlineto
          32 -7 27 -17 21 vhcurveto
          endchar
        </CharString>
        <CharString name="Otilde">
          19 194 706 rmoveto
          208 callgsubr
          21 callsubr
          vlineto
          110 -528 -52 callgsubr
        </CharString>
        <CharString name="P">
          7 309 357 10 callsubr
          -69 182 69 -55 callgsubr
          -269 147 330 callgsubr
          210 122 vlineto
          107 40 49 75 hvcurveto
          184 -13 callsubr
          endchar
        </CharString>
        <CharString name="Q">
          19 212 495 rmoveto
          15 8 7 17 vhcurveto
          42 -55 callgsubr
          -348 142 callsubr
          -42 -54 callsubr
          323 -215 rmoveto
          -93 99 rlineto
          26 22 11 32 39 vvcurveto
          394 -13 callsubr
          -148 hlineto
          2 callgsubr
          89 hlineto
          63 -68 rlineto
          endchar
        </CharString>
        <CharString name="R">
          17 284 517 79 callgsubr
        </CharString>
        <CharString name="Racute">
          17 443 824 49 callsubr
          -26 -157 79 callgsubr
        </CharString>
        <CharString name="Rcaron">
          17 331 674 1 callsubr
          107 -157 79 callgsubr
        </CharString>
        <CharString name="S">
          -6 286 147 -39 callgsubr
        </CharString>
        <CharString name="Sacute">
          -6 193 675 150 callsubr
          -4 -678 -39 callgsubr
        </CharString>
        <CharString name="Scaron">
          -6 168 675 178 callgsubr
          251 -678 -39 callgsubr
        </CharString>
        <CharString name="T">
          -65 427 642 202 callsubr
        </CharString>
        <CharString name="Tcaron">
          -65 290 675 1 callsubr
          291 -33 202 callsubr
        </CharString>
        <CharString name="Thorn">
          37 304 257 10 callsubr
          -59 171 59 -55 callgsubr
          -84 142 rmoveto
          116 -175 317 callgsubr
          115 112 vlineto
          107 40 49 75 hvcurveto
          163 -13 callsubr
          endchar
        </CharString>
        <CharString name="U">
          25 307 642 -3 callsubr
        </CharString>
        <CharString name="Uacute">
          25 453 825 49 callsubr
          -13 -33 -3 callsubr
        </CharString>
        <CharString name="Ucircumflex">
          25 261 744 47 callgsubr
          99 -33 -3 callsubr
        </CharString>
        <CharString name="Udieresis">
          25 456 805 64 callsubr
          91 -33 -3 callsubr
        </CharString>
        <CharString name="Ugrave">
          25 326 675 133 callgsubr
          115 -33 -3 callsubr
        </CharString>
        <CharString name="Uhungarumlaut">
          3 402 675 128 callgsubr
          95 -528 10 callsubr
          -42 -54 callsubr
          495 -175 -518 -28 callgsubr
          148 214 callsubr
          -175 vlineto
          endchar
        </CharString>
        <CharString name="Umacron">
          25 456 781 254 callgsubr
          -149 -33 -3 callsubr
        </CharString>
        <CharString name="Uogonek">
          25 307 642 rmoveto
          -495 142 callsubr
          -42 -54 callsubr
          495 -175 -518 -28 callgsubr
          39 -17 -6 hlineto
          90 callgsubr
          -91 hlineto
          117 callgsubr
          114 18 214 callsubr
          vlineto
          endchar
        </CharString>
        <CharString name="Uring">
          25 222 778 34 callgsubr
          89 -32 -3 callsubr
        </CharString>
        <CharString name="V">
          36 344 642 rmoveto
          -78 -429 -77 429 rlineto
          -182 hlineto
          158 -642 rlineto
          203 hlineto
          158 642 rlineto
          endchar
        </CharString>
        <CharString name="W">
          339 653 642 rmoveto
          -64 -432 -86 432 rlineto
          -171 hlineto
          -86 -432 -54 432 rlineto
          -182 hlineto
          136 -642 rlineto
          201 hlineto
          71 383 71 -383 rlineto
          201 hlineto
          136 642 rlineto
          endchar
        </CharString>
        <CharString name="X">
          24 354 326 rmoveto
          143 316 rlineto
          -188 hlineto
          -54 -164 -53 164 rlineto
          -198 hlineto
          153 -316 -157 -326 rlineto
          186 hlineto
          69 180 69 -180 rlineto
          197 hlineto
          endchar
        </CharString>
        <CharString name="Y">
          22 519 642 184 callgsubr
        </CharString>
        <CharString name="Yacute">
          22 453 825 49 callsubr
          199 -33 184 callgsubr
        </CharString>
        <CharString name="Ydieresis">
          3 446 823 64 callsubr
          313 -51 184 callgsubr
        </CharString>
        <CharString name="Z">
          -33 444 642 261 callsubr
        </CharString>
        <CharString name="Zacute">
          -33 431 825 49 callsubr
          146 256 callgsubr
        </CharString>
        <CharString name="Zcaron">
          -33 326 675 1 callsubr
          -139 -158 rmoveto
          163 callgsubr
          125 -411 vlineto
          endchar
        </CharString>
        <CharString name="Zdotaccent">
          -33 325 805 309 callsubr
          119 256 callgsubr
        </CharString>
        <CharString name="a">
          -18 225 125 -28 callsubr
          -54 170 353 callsubr
        </CharString>
        <CharString name="aacute">
          -18 443 682 49 callsubr
          -85 -407 7 callsubr
          endchar
        </CharString>
        <CharString name="abreve">
          -18 225 125 7 callsubr
          35 183 rmoveto
          108 callgsubr
          100 -13 callgsubr
          26 vlineto
          endchar
        </CharString>
        <CharString name="acircumflex">
          -18 241 601 47 callgsubr
          37 -407 7 callsubr
          endchar
        </CharString>
        <CharString name="acute">
          3 116 532 150 callsubr
          endchar
        </CharString>
        <CharString name="adieresis">
          -18 206 672 rmoveto
          -152 -130 152 hlineto
          19 -417 7 callsubr
          22 173 rmoveto
          -130 361 callgsubr
          vlineto
          endchar
        </CharString>
        <CharString name="ae">
          239 294 callsubr
          -295 -175 284 callgsubr
          27 vlineto
          69 29 rlineto
          -48 258 callgsubr
          234 374 rmoveto
          -69 -41 -21 -35 -21 hvcurveto
          35 -19 -47 21 -48 hhcurveto
          -68 hlineto
          -95 -38 -49 -75 hvcurveto
          -66 170 43 246 callsubr
          -38 vlineto
          -239 -98 rlineto
          -84 217 callgsubr
          67 hlineto
          48 47 21 35 19 hvcurveto
          -35 21 41 -21 69 hhcurveto
          63 -13 callgsubr
          43 -165 -25 338 callgsubr
          59 251 174 -13 callsubr
          endchar
        </CharString>
        <CharString name="agrave">
          -18 334 532 133 callgsubr
          25 -407 -28 callsubr
          -54 170 353 callsubr
        </CharString>
        <CharString name="amacron">
          -18 434 661 254 callgsubr
          -209 -430 -28 callsubr
          -54 170 353 callsubr
        </CharString>
        <CharString name="ampersand">
          128 220 115 284 callgsubr
          42 vlineto
          20 8 9 15 9 vhcurveto
          17 10 108 -112 rlineto
          -107 393 rmoveto
          15 8 7 17 vhcurveto
          23 -55 callgsubr
          -61 vlineto
          -26 -16 -9 -34 -19 vhcurveto
          -18 19 -5 9 22 vvcurveto
          426 -479 rmoveto
          -84 90 rlineto
          13 19 6 24 27 vvcurveto
          127 -138 -70 vlineto
          -106 113 16 9 rlineto
          68 41 37 27 79 vvcurveto
          68 vlineto
          75 -37 49 -107 vhcurveto
          -117 142 callgsubr
          -68 vlineto
          -41 19 -26 51 -53 vhcurveto
          4 -5 -16 -9 rlineto
          -70 -39 -24 -26 -69 vvcurveto
          -58 -28 callgsubr
          265 hlineto
          11 hlineto
          35 -36 rlineto
          endchar
        </CharString>
        <CharString name="aogonek">
          -18 225 253 callsubr
          124 -302 318 callgsubr
          -167 -64 hlineto
          77 callgsubr
          79 296 callsubr
        </CharString>
        <CharString name="approxequal">
          66 360 335 rmoveto
          210 callgsubr
          -196 vmoveto
          210 callgsubr
          endchar
        </CharString>
        <CharString name="aring">
          -18 201 634 34 callgsubr
          28 -405 -28 callsubr
          -54 170 353 callsubr
        </CharString>
        <CharString name="asciicircum">
          207 214 669 rmoveto
          -122 -389 rlineto
          177 hlineto
          61 245 61 -245 rlineto
          177 hlineto
          -122 389 rlineto
          endchar
        </CharString>
        <CharString name="asciitilde">
          222 441 204 rmoveto
          67 hlineto
          80 31 31 69 hvcurveto
          85 -155 -45 vlineto
          -23 -5 -9 -23 vhcurveto
          -36 -38 77 -88 hhcurveto
          -67 hlineto
          -80 -31 -31 -69 hvcurveto
          -85 155 45 vlineto
          23 5 9 23 vhcurveto
          49 41 -77 72 hhcurveto
          endchar
        </CharString>
        <CharString name="asterisk">
          -107 373 469 rmoveto
          -38 118 -16 -5 -30 -9 -23 -13 -19 -12 rlinecurve
          7 21 4 26 30 vvcurveto
          17 -125 -16 vlineto
          -31 5 -27 6 -21 vhcurveto
          -18 12 -24 13 -29 9 -16 5 rcurveline
          -39 -118 15 -5 30 -10 27 -4 22 -1 rlinecurve
          -17 -13 -19 -18 -18 -25 -11 -15 rcurveline
          101 -73 10 13 19 26 12 24 7 22 rlinecurve
          8 -21 11 -24 18 -25 11 -14 rcurveline
          101 73 -10 13 -18 25 -19 19 -18 14 rlinecurve
          22 1 26 3 29 10 rrcurveto
          endchar
        </CharString>
        <CharString name="at">
          366 247 324 rmoveto
          -131 vlineto
          -68 35 -45 86 vhcurveto
          16 hlineto
          49 27 23 38 8 hvcurveto
          -61 216 vlineto
          95 38 49 75 hvcurveto
          290 vlineto
          75 -36 49 -95 vhcurveto
          -513 hlineto
          -95 -38 -49 -75 hvcurveto
          -474 217 callgsubr
          430 115 -388 -54 callsubr
          448 -40 callsubr
          431 -55 callgsubr
          -275 142 callsubr
          -44 253 -135 -58 hlineto
          36 -9 -27 22 -47 hhcurveto
          -16 hlineto
          -86 -35 -45 -68 hvcurveto
          146 -12 rmoveto
          14 7 6 15 vhcurveto
          25 hlineto
          16 8 -8 -19 hvcurveto
          -93 vlineto
          -19 -8 -8 -16 vhcurveto
          -25 hlineto
          -15 -7 6 14 hvcurveto
          endchar
        </CharString>
        <CharString name="atilde">
          -18 177 563 rmoveto
          208 callgsubr
          21 callsubr
          vlineto
          48 -407 -28 callsubr
          -54 170 353 callsubr
        </CharString>
        <CharString name="b">
          -18 279 152 callsubr
          -47 -29 -20 -34 -12 hvcurveto
          224 -170 -669 167 64 vlineto
          -40 9 30 -24 52 253 callgsubr
        </CharString>
        <CharString name="backslash">
          -86 -20 702 rmoveto
          307 -762 rlineto
          144 hlineto
          -307 762 rlineto
          endchar
        </CharString>
        <CharString name="bar">
          -231 50 833 rmoveto
          -1026 155 1026 vlineto
          endchar
        </CharString>
        <CharString name="braceleft">
          -171 265 654 rmoveto
          15 8 7 17 vhcurveto
          26 115 -79 hlineto
          -107 -40 -59 -75 hvcurveto
          -200 vlineto
          -57 -18 -25 -49 vhcurveto
          -7 -115 7 hlineto
          49 18 -25 -55 hvcurveto
          -202 vlineto
          -75 40 -59 107 vhcurveto
          79 115 -26 -54 callsubr
          223 vlineto
          71 -32 40 -46 3 vhcurveto
          42 10 36 33 82 vvcurveto
          endchar
        </CharString>
        <CharString name="braceright">
          -171 61 443 rmoveto
          -82 36 -33 42 -10 vhcurveto
          -46 -3 -32 -40 -71 vvcurveto
          -223 142 callsubr
          -26 -115 79 hlineto
          107 40 59 75 hvcurveto
          202 vlineto
          55 18 25 49 vhcurveto
          7 115 -7 hlineto
          -49 -18 25 57 hvcurveto
          200 vlineto
          75 -40 59 -107 vhcurveto
          -79 -115 26 186 callgsubr
        </CharString>
        <CharString name="bracketleft">
          -180 307 666 rmoveto
          125 -267 -948 267 125 -92 698 vlineto
          endchar
        </CharString>
        <CharString name="bracketright">
          -180 277 791 rmoveto
          -267 -125 92 -698 -92 -125 267 hlineto
          endchar
        </CharString>
        <CharString name="breve">
          3 297 682 rmoveto
          108 callgsubr
          100 -13 callgsubr
          26 vlineto
          endchar
        </CharString>
        <CharString name="brokenbar">
          -231 40 262 rmoveto
          -355 175 355 vlineto
          116 vmoveto
          355 -175 -355 vlineto
          endchar
        </CharString>
        <CharString name="bullet">
          -101 50 321 rmoveto
          -81 67 -67 81 81 67 67 81 81 -67 67 -81 -81 -67 -67 -81 vhcurveto
          endchar
        </CharString>
        <CharString name="c">
          -46 431 306 rmoveto
          69 -13 callsubr
          -107 hlineto
          41 callgsubr
          vlineto
          endchar
        </CharString>
        <CharString name="cacute">
          -46 433 682 49 callsubr
          -123 -33 rmoveto
          41 callgsubr
          164 69 -13 callsubr
          endchar
        </CharString>
        <CharString name="caron">
          3 173 532 178 callgsubr
          endchar
        </CharString>
        <CharString name="ccaron">
          -46 303 532 1 callsubr
          28 -33 rmoveto
          41 callgsubr
          164 69 -13 callsubr
          endchar
        </CharString>
        <CharString name="ccedilla">
          -46 156 -123 10 callsubr
          -53 -115 91 -13 callgsubr
          90 -160 vlineto
          275 352 rmoveto
          69 -13 callsubr
          -107 hlineto
          41 callgsubr
          vlineto
          endchar
        </CharString>
        <CharString name="cedilla">
          3 199 -123 10 callsubr
          -53 -115 91 -13 callgsubr
          90 -160 vlineto
          endchar
        </CharString>
        <CharString name="cent">
          -46 431 306 rmoveto
          69 vlineto
          67 -32 47 -84 8 vhcurveto
          82 -165 -81 vlineto
          -87 -8 -33 -47 -68 vvcurveto
          -251 vlineto
          -68 33 -47 87 -8 vhcurveto
          -81 165 82 vlineto
          84 8 32 47 67 vvcurveto
          69 -164 -46 142 callsubr
          -17 hlineto
          -5 callsubr
          17 8 -7 -15 hvcurveto
          -46 vlineto
          endchar
        </CharString>
        <CharString name="circumflex">
          3 40 532 220 callsubr
        </CharString>
        <CharString name="colon">
          -245 40 335 rmoveto
          215 callgsubr
          -499 vmoveto
          215 callgsubr
          endchar
        </CharString>
        <CharString name="comma">
          -245 40 -149 rmoveto
          293 callgsubr
        </CharString>
        <CharString name="commaaccent">
          3 166 8 callsubr
          endchar
        </CharString>
        <CharString name="copyright">
          275 742 338 rmoveto
          181 -53 123 -205 vhcurveto
          -196 hlineto
          -205 -53 -123 -181 hvcurveto
          -34 vlineto
          -181 53 -123 205 vhcurveto
          196 hlineto
          205 53 123 181 hvcurveto
          -421 -205 rmoveto
          -109 -52 28 159 hvcurveto
          70 vlineto
          159 52 28 -11 callsubr
          130 hlineto
          109 52 -28 -159 hvcurveto
          -70 vlineto
          -159 -52 -28 -109 vhcurveto
          -38 161 rmoveto
          -10 -6 -5 -11 vhcurveto
          -18 hlineto
          -12 -5 5 10 hvcurveto
          123 vlineto
          10 5 5 12 vhcurveto
          18 hlineto
          11 6 -5 -10 hvcurveto
          -33 117 53 vlineto
          51 -28 34 -73 vhcurveto
          -84 hlineto
          -74 -27 -34 -51 hvcurveto
          -163 vlineto
          -51 27 -34 74 vhcurveto
          84 hlineto
          73 28 34 51 hvcurveto
          54 -117 vlineto
          endchar
        </CharString>
        <CharString name="currency">
          98 280 198 rmoveto
          -52 -25 9 67 hvcurveto
          51 vlineto
          67 25 10 52 vhcurveto
          15 hlineto
          51 26 -10 -67 hvcurveto
          -51 vlineto
          -67 -26 -9 -51 vhcurveto
          213 128 rmoveto
          42 -5 37 -14 29 vhcurveto
          51 51 -101 102 -77 -77 rlineto
          1 -11 -12 1 -13 hhcurveto
          -75 hlineto
          -14 -14 -1 -1 -12 hvcurveto
          -78 77 -101 -102 54 -54 rlineto
          -12 -29 -5 -35 -41 vvcurveto
          -52 vlineto
          -34 3 -30 9 -26 vhcurveto
          -49 -49 101 -102 61 61 rlineto
          -3 17 19 -2 21 hhcurveto
          75 hlineto
          19 18 1 3 16 hvcurveto
          60 -60 101 102 -45 45 rlineto
          9 27 4 31 36 vvcurveto
          endchar
        </CharString>
        <CharString name="d">
          -18 241 callsubr
          544 rmoveto
          -224 vlineto
          161 callsubr
          669 vlineto
          endchar
        </CharString>
        <CharString name="dagger">
          -43 444 490 rmoveto
          333 callgsubr
          -484 175 484 130 hlineto
          endchar
        </CharString>
        <CharString name="daggerdbl">
          -13 459 375 rmoveto
          115 333 callgsubr
          -245 -129 -115 129 -152 175 361 callgsubr
          115 -130 245 vlineto
          endchar
        </CharString>
        <CharString name="dcaron">
          23 241 callsubr
          320 rmoveto
          161 callsubr
          669 -170 vlineto
          210 hmoveto
          -213 40 vlineto
          76 136 rlineto
          77 vlineto
          endchar
        </CharString>
        <CharString name="dcroat">
          -13 230 253 callsubr
          247 497 rmoveto
          -50 47 -170 -47 -60 -75 60 -102 hlineto
          161 callsubr
          547 50 vlineto
          endchar
        </CharString>
        <CharString name="degree">
          -13 444 518 rmoveto
          75 -35 49 -107 vhcurveto
          -120 hlineto
          -107 -35 -49 -75 hvcurveto
          -91 vlineto
          -75 35 -49 107 vhcurveto
          120 hlineto
          107 35 49 75 hvcurveto
          -158 3 10 callsubr
          -38 -54 callsubr
          85 -40 callsubr
          38 186 callgsubr
        </CharString>
        <CharString name="dieresis">
          3 54 542 177 callgsubr
          endchar
        </CharString>
        <CharString name="divide">
          36 25 257 340 callsubr
          160 155 rmoveto
          -115 163 115 vlineto
          -163 -320 rmoveto
          -115 163 115 vlineto
          endchar
        </CharString>
        <CharString name="dollar">
          -6 230 378 284 callgsubr
          95 -40 callsubr
          29 -55 callgsubr
          -54 175 77 vlineto
          71 -35 48 -96 5 vhcurveto
          85 -166 -85 vlineto
          -96 -4 -36 -48 -72 vvcurveto
          -132 vlineto
          -75 31 -51 104 vhcurveto
          96 -55 callgsubr
          -91 vlineto
          349 callgsubr
          54 -175 -77 vlineto
          -71 36 -48 94 -5 vhcurveto
          -84 166 84 vlineto
          97 4 36 48 72 vvcurveto
          132 vlineto
          75 -33 47 -104 vhcurveto
          endchar
        </CharString>
        <CharString name="dotaccent">
          3 169 542 364 callgsubr
        </CharString>
        <CharString name="dotlessi">
          207 callsubr
          endchar
        </CharString>
        <CharString name="dvBH_N">
          487 686 -20 callsubr
          -408 hmoveto
          -107 callgsubr
          72 -101 callsubr
          45 hlineto
          170 113 rmoveto
          110 vlineto
          -83 callsubr
          -94 249 callsubr
          -108 -103 callgsubr
          102 68 -102 -80 callsubr
          80 113 -348 vlineto
          -77 -38 -17 -35 -15 hvcurveto
          -10 222 rmoveto
          -113 488 231 callgsubr
        </CharString>
        <CharString name="dvB_N">
          338 537 -20 callsubr
          -337 117 -46 callgsubr
          167 59 rmoveto
          168 callgsubr
          80 113 -348 vlineto
          -109 -31 -34 -73 hvcurveto
          -387 331 callgsubr
          875 231 callgsubr
        </CharString>
        <CharString name="dvCH_N">
          204 194 -275 rmoveto
          18 callgsubr
          39 745 -86 callgsubr
          322 hmoveto
          113 -741 -113 60 vlineto
          -17 callsubr
          212 -71 -126 hlineto
          49 callgsubr
          98 -119 120 291 hlineto
          91 5 43 36 85 vvcurveto
          238 vlineto
          71 -35 27 -67 7 317 callsubr
        </CharString>
        <CharString name="dvC_N">
          293 492 244 callsubr
          -51 -102 callgsubr
          120 vlineto
          10 callgsubr
          -27 callgsubr
          128 115 callsubr
          90 113 -358 128 callsubr
          -344 331 callgsubr
          842 231 callgsubr
        </CharString>
        <CharString name="dvDDH_DDHA">
          20 448 359 rmoveto
          170 89 113 -557 239 callsubr
          -57 249 callsubr
          -248 vlineto
          -45 17 -17 30 -4 vhcurveto
          -5 vlineto
          -30 -4 -17 -18 -38 vvcurveto
          -149 vlineto
          -80 callgsubr
          116 -102 callsubr
          32 84 callsubr
          -72 -113 38 20 callsubr
          -12 160 callsubr
          -48 -100 callgsubr
          175 -101 callsubr
          84 -102 callsubr
          32 84 callsubr
          -72 -113 38 20 callsubr
          -12 160 callsubr
          -48 -100 callgsubr
          156 349 callsubr
        </CharString>
        <CharString name="dvDD_GA">
          -27 407 369 299 callsubr
          -510 -71 callgsubr
          -52 15 -32 48 -14 vhcurveto
          -70 221 callgsubr
          208 vlineto
          37 16 13 30 47 146 callgsubr
        </CharString>
        <CharString name="dvDD_N">
          -27 60 -259 rmoveto
          18 callgsubr
          181 628 299 callsubr
          -510 -71 callgsubr
          -91 callsubr
          110 -71 -108 hlineto
          49 callgsubr
          80 -119 120 314 hlineto
          24 17 8 28 38 146 callgsubr
        </CharString>
        <CharString name="dvDH_N">
          437 573 339 rmoveto
          15 8 5 15 vhcurveto
          45 -144 hlineto
          -19 -10 -5 -15 vhcurveto
          -18 hlineto
          -15 -10 5 19 hvcurveto
          -170 10 rmoveto
          4 callsubr
          154 153 113 -421 128 callsubr
          -1 277 rmoveto
          1 -113 rlineto
          561 300 callsubr
        </CharString>
        <CharString name="dvD_N">
          -23 69 -188 rmoveto
          18 callgsubr
          259 830 96 callsubr
        </CharString>
        <CharString name="dvGH_N">
          293 492 -20 callsubr
          318 314 rmoveto
          113 -830 -113 66 vlineto
          194 callgsubr
          -86 -73 callsubr
          -96 vlineto
          -44 callsubr
          102 115 callsubr
          80 113 -348 vlineto
          -109 -31 -34 -73 hvcurveto
          -140 vlineto
          -42 callsubr
          -55 -102 callgsubr
          64 81 callgsubr
          113 -33 -102 callgsubr
          55 vlineto
          26 8 8 26 vhcurveto
          endchar
        </CharString>
        <CharString name="dvG_N">
          469 668 67 callsubr
          -10 rmoveto
          179 callgsubr
          -275 -174 -58 callgsubr
          745 451 rmoveto
          -1006 -113 -72 callsubr
          550 vlineto
          endchar
        </CharString>
        <CharString name="dvJH_N">
          441 640 -20 callsubr
          -246 154 rmoveto
          160 564 113 -998 -113 264 55 callsubr
          73 vlineto
          8 -1 344 callsubr
          60 hlineto
          -91 1 41 -33 119 hhcurveto
          162 callsubr
          -60 -267 339 callsubr
          endchar
        </CharString>
        <CharString name="dvJ_N">
          530 754 359 rmoveto
          -144 -43 callgsubr
          124 -101 callsubr
          348 113 rmoveto
          -779 -257 hlineto
          8 callgsubr
          -154 -80 callsubr
          133 vlineto
          -1077 283 rmoveto
          -113 1077 231 callgsubr
        </CharString>
        <CharString name="dvKH_N">
          738 891 67 callsubr
          hmoveto
          42 callgsubr
          36 22 9 18 12 hvcurveto
          -19 25 39 callgsubr
          154 156 113 -424 128 callsubr
          -741 331 callgsubr
          249 vlineto
          -81 callgsubr
          858 300 callsubr
        </CharString>
        <CharString name="dvK_N">
          529 748 329 rmoveto
          -114 -43 callgsubr
          94 -101 callsubr
          373 200 rmoveto
          113 -1096 -113 285 -314 vlineto
          -99 callgsubr
          27 16 5 11 10 hvcurveto
          -94 170 305 -87 callgsubr
          52 -124 hlineto
          -95 callsubr
          124 158 113 -588 vlineto
          239 callgsubr
          vlineto
          endchar
        </CharString>
        <CharString name="dvM_N">
          507 744 215 101 callsubr
          756 210 rmoveto
          113 -1044 -113 764 -97 -574 128 callsubr
          -120 229 callsubr
          110 113 -110 97 vlineto
          endchar
        </CharString>
        <CharString name="dvMatraI.a33">
          -106 callgsubr
          1239 -82 callsubr
        </CharString>
        <CharString name="dvMatraI.a34">
          -106 callgsubr
          1271 -82 callsubr
        </CharString>
        <CharString name="dvMatraI.a35">
          -106 callgsubr
          1304 -82 callsubr
        </CharString>
        <CharString name="dvMatraI.a36">
          -106 callgsubr
          1336 -82 callsubr
        </CharString>
        <CharString name="dvMatraI.a37">
          -106 callgsubr
          1368 -82 callsubr
        </CharString>
        <CharString name="dvMatraI.a38">
          -106 callgsubr
          1401 -82 callsubr
        </CharString>
        <CharString name="dvMatraI.a39">
          -106 callgsubr
          1433 -82 callsubr
        </CharString>
        <CharString name="dvMatraI.a40">
          -106 callgsubr
          1465 -82 callsubr
        </CharString>
        <CharString name="dvMatraI.a41">
          -106 callgsubr
          1497 -82 callsubr
        </CharString>
        <CharString name="dvMatraI.a42">
          -106 callgsubr
          1530 -82 callsubr
        </CharString>
        <CharString name="dvMatraI.a43">
          -106 callgsubr
          1562 -82 callsubr
        </CharString>
        <CharString name="dvMatraI.a44">
          -106 callgsubr
          1594 -82 callsubr
        </CharString>
        <CharString name="dvMatraI.a45">
          -106 callgsubr
          1627 -82 callsubr
        </CharString>
        <CharString name="dvMatraI.a46">
          -106 callgsubr
          1659 -82 callsubr
        </CharString>
        <CharString name="dvMatraI.a47">
          -106 callgsubr
          1691 -82 callsubr
        </CharString>
        <CharString name="dvMatraI.a48">
          -106 callgsubr
          1723 -82 callsubr
        </CharString>
        <CharString name="dvMatraI.a49">
          -106 callgsubr
          1756 -82 callsubr
        </CharString>
        <CharString name="dvMatraI.a50">
          -106 callgsubr
          1788 -82 callsubr
        </CharString>
        <CharString name="dvNG_GA">
          61 434 284 -70 callsubr
          -454 229 rmoveto
          -71 callgsubr
          -52 15 -32 48 -14 vhcurveto
          -70 221 callgsubr
          208 vlineto
          37 16 13 30 47 vvcurveto
          -51 callgsubr
          180 160 171 300 callsubr
        </CharString>
        <CharString name="dvNG_MA">
          296 557 418 rmoveto
          -122 -129 122 hlineto
          26 -192 rmoveto
          -153 102 hlineto
          -41 callgsubr
          180 160 176 hlineto
          3 callsubr
          -833 -113 257 -57 -63 hlineto
          -68 callgsubr
          -91 callsubr
          56 hlineto
          12 12 1 2 12 hvcurveto
          -100 170 81 153 -151 170 696 60 vlineto
          endchar
        </CharString>
        <CharString name="dvNY_CA">
          461 978 642 rmoveto
          -998 -113 768 197 callsubr
          -255 -113 56 357 callgsubr
          -3 -75 53 201 callgsubr
          113 43 30 81 5 hvcurveto
          75 hlineto
          -81 6 44 -30 81 57 callsubr
        </CharString>
        <CharString name="dvN_N">
          497 175 callgsubr
          756 113 rmoveto
          -854 -32 callsubr
          68 -154 -80 callsubr
          110 vlineto
          -1044 283 rmoveto
          -113 1044 231 callgsubr
        </CharString>
        <CharString name="dvPH_N">
          501 293 callsubr
          483 -170 rmoveto
          -144 -43 callgsubr
          124 -101 callsubr
          295 170 rmoveto
          113 -1038 169 callsubr
          52 89 callgsubr
          80 336 callgsubr
          vlineto
          -42 callgsubr
          73 vlineto
          endchar
        </CharString>
        <CharString name="dvP_N">
          286 485 -20 callsubr
          318 314 rmoveto
          113 -823 304 callgsubr
          125 115 callsubr
          80 113 -348 vlineto
          -109 -31 -34 -73 hvcurveto
          -140 vlineto
          -42 callsubr
          -48 355 callgsubr
        </CharString>
        <CharString name="dvSHA_MatraVocalicR">
          237 217 521 179 callsubr
          477 -365 rmoveto
          483 60 113 -230 -251 -81 112 callgsubr
          143 -142 230 callgsubr
        </CharString>
        <CharString name="dvSH_VA.aSimp">
          511 200 647 rmoveto
          -98 callsubr
          715 -5 rmoveto
          -535 -113 305 38 callsubr
          -160 -6 callgsubr
          529 60 vlineto
          endchar
        </CharString>
        <CharString name="dvS_N">
          457 656 -20 callsubr
          318 427 rmoveto
          -994 -113 249 hlineto
          26 8 -8 -26 hvcurveto
          -98 vlineto
          -26 -9 -8 -25 vhcurveto
          -19 109 138 callsubr
          127 276 -45 vlineto
          179 callgsubr
          -2 -59 358 callgsubr
          116 vlineto
          10 -2 8 -4 7 vhcurveto
          547 hlineto
          endchar
        </CharString>
        <CharString name="dvTH_N">
          445 611 339 rmoveto
          15 8 5 15 vhcurveto
          45 -144 hlineto
          -19 -10 -5 -15 vhcurveto
          -18 hlineto
          -15 -10 5 19 hvcurveto
          -170 10 rmoveto
          130 callgsubr
          31 17 10 17 8 hvcurveto
          -19 26 40 -8 58 hhcurveto
          86 hlineto
          120 41 34 93 hvcurveto
          154 113 113 -381 128 callsubr
          277 vmoveto
          -113 521 231 callgsubr
        </CharString>
        <CharString name="dvTTH_N">
          -9 71 -265 rmoveto
          18 callgsubr
          41 402 -25 callgsubr
          -80 callgsubr
          80 -71 -96 hlineto
          49 callgsubr
          68 -119 120 311 hlineto
          34 19 13 34 53 210 callsubr
        </CharString>
        <CharString name="dvTTH_TTHA">
          51 345 -96 rmoveto
          272 callgsubr
          319 vmoveto
          272 callgsubr
          223 178 rmoveto
          113 -588 -113 205 -44 341 callsubr
          -78 vlineto
          -89 37 -35 108 -3 vhcurveto
          -51 341 callsubr
          -78 vlineto
          -80 callgsubr
          146 -102 callsubr
          78 359 callgsubr
          51 vlineto
          106 4 37 35 88 vvcurveto
          78 359 callgsubr
          44 vlineto
          endchar
        </CharString>
        <CharString name="dvTT_GA">
          -9 508 642 116 callsubr
          -63 19 -36 49 -16 vhcurveto
          -73 221 callgsubr
          213 vlineto
          37 19 14 34 55 vvcurveto
          -60 callsubr
        </CharString>
        <CharString name="dvTT_N">
          -9 75 -272 rmoveto
          18 callgsubr
          267 914 116 callsubr
          -80 callgsubr
          86 hlineto
          10 -71 -108 hlineto
          49 callgsubr
          80 -119 120 322 hlineto
          22 21 9 30 44 vvcurveto
          -60 callsubr
        </CharString>
        <CharString name="dvT_KH_NA">
          1145 1202 13 callgsubr
          -1682 -113 492 hlineto
          -30 callsubr
          -273 hlineto
          -40 callgsubr
          50 -244 -61 callgsubr
          762 -57 -328 198 callgsubr
          80 hlineto
          38 20 10 21 9 hvcurveto
          -22 25 41 -9 62 hhcurveto
          81 callsubr
        </CharString>
        <CharString name="dvT_N">
          286 449 -20 callsubr
          354 257 rmoveto
          -623 hlineto
          -40 callgsubr
          46 89 callgsubr
          116 vlineto
          -823 283 rmoveto
          -113 823 231 callgsubr
        </CharString>
        <CharString name="dvT_R_KA">
          527 1044 270 callgsubr
          -1064 -113 609 61 callsubr
          -84 -15 vlineto
          -81 119 rlineto
          -4 callgsubr
          21 hlineto
          -75 8 44 -28 78 hhcurveto
          -101 callgsubr
        </CharString>
        <CharString name="dvT_S_NA">
          910 1197 472 rmoveto
          -328 36 callgsubr
          527 hlineto
          43 callsubr
          -1447 -113 492 13 callsubr
          -273 hlineto
          -109 -31 -34 -73 hvcurveto
          -258 24 callsubr
          127 276 -45 60 callgsubr
        </CharString>
        <CharString name="dvV_N">
          256 455 67 callsubr
          hmoveto
          155 callsubr
          80 113 -348 vlineto
          -109 -31 -34 -73 hvcurveto
          -305 331 callgsubr
          793 231 callgsubr
        </CharString>
        <CharString name="dvY_N">
          389 588 -20 callsubr
          318 427 rmoveto
          -926 1 callgsubr
          -44 callsubr
          198 115 callsubr
          80 113 -348 vlineto
          -109 -31 -34 -73 hvcurveto
          -140 vlineto
          -89 callsubr
          570 hlineto
          endchar
        </CharString>
        <CharString name="e">
          -26 191 297 -59 callgsubr
        </CharString>
        <CharString name="eacute">
          -26 437 682 49 callsubr
          -113 -235 -59 callgsubr
        </CharString>
        <CharString name="ecaron">
          -26 316 532 1 callsubr
          29 -235 -59 callgsubr
        </CharString>
        <CharString name="ecircumflex">
          -26 240 601 47 callgsubr
          4 -235 -59 callgsubr
        </CharString>
        <CharString name="edieresis">
          -26 434 672 64 callsubr
          -3 -245 -59 callgsubr
        </CharString>
        <CharString name="edotaccent">
          -26 317 672 309 callsubr
          -126 -245 -59 callgsubr
        </CharString>
        <CharString name="egrave">
          -26 293 532 133 callgsubr
          32 -235 -59 callgsubr
        </CharString>
        <CharString name="eight">
          59 callsubr
        </CharString>
        <CharString name="ellipsis">
          255 40 hmoveto
          215 callgsubr
          250 -164 rmoveto
          215 callgsubr
          250 -164 rmoveto
          215 callgsubr
          endchar
        </CharString>
        <CharString name="emacron">
          -26 430 661 254 callgsubr
          -239 -258 -59 callgsubr
        </CharString>
        <CharString name="emdash">
          252 46 245 rmoveto
          648 115 -648 hlineto
          endchar
        </CharString>
        <CharString name="endash">
          110 46 245 rmoveto
          409 115 -409 hlineto
          endchar
        </CharString>
        <CharString name="eogonek">
          -26 191 297 rmoveto
          63 63 callsubr
          -63 vlineto
          -108 202 102 callgsubr
          29 -17 -6 hlineto
          90 callgsubr
          -91 hlineto
          117 callgsubr
          114 2 -13 callgsubr
          45 -161 -28 vlineto
          -15 -8 -9 100 callgsubr
          66 255 170 -13 callsubr
          endchar
        </CharString>
        <CharString name="equal">
          36 25 361 rmoveto
          483 129 -483 hlineto
          -341 vmoveto
          483 129 -483 hlineto
          endchar
        </CharString>
        <CharString name="eth">
          -3 290 248 callgsubr
          -40 -54 callsubr
          143 -40 callsubr
          65 -3 hlineto
          137 241 rmoveto
          84 vlineto
          -87 -26 -15 15 -13 11 -10 8 rlinecurve
          -235 hlineto
          21 -14 44 -28 43 -42 -60 -18 rcurveline
          -84 vlineto
          116 35 14 -19 12 -22 9 -23 rlinecurve
          -89 142 callgsubr
          -179 -28 callgsubr
          133 -13 callgsubr
          183 vlineto
          99 -30 77 -35 57 vhcurveto
          endchar
        </CharString>
        <CharString name="exclam">
          -200 50 642 rmoveto
          30 -409 rlineto
          137 hlineto
          30 409 rlineto
          -185 -642 rmoveto
          215 callgsubr
          endchar
        </CharString>
        <CharString name="exclamdown">
          -200 62 335 rmoveto
          215 callgsubr
          185 -642 rmoveto
          -30 409 rlineto
          -137 hlineto
          -30 -409 rlineto
          endchar
        </CharString>
        <CharString name="f">
          -183 309 549 rmoveto
          120 -101 vlineto
          23 callgsubr
          -46 -51 -125 51 -374 170 374 78 125 -78 28 -40 callsubr
          endchar
        </CharString>
        <CharString name="fi">
          13 470 499 rmoveto
          -242 30 hlineto
          15 8 7 17 vhcurveto
          16 118 -61 142 callgsubr
          -46 -51 -125 51 -374 167 374 75 -374 167 vlineto
          -167 669 rmoveto
          -118 167 118 vlineto
          endchar
        </CharString>
        <CharString name="five">
          149 callgsubr
        </CharString>
        <CharString name="fl">
          13 304 669 rmoveto
          -170 -76 30 -40 callsubr
          16 118 -61 142 callgsubr
          -46 -51 -125 51 -374 167 374 76 -374 166 669 vlineto
          endchar
        </CharString>
        <CharString name="florin">
          -48 414 544 rmoveto
          125 -101 vlineto
          -107 -29 -50 -74 -11 hvcurveto
          -7 -46 rlineto
          -84 -125 66 hlineto
          -55 -374 rlineto
          -15 -2 -6 -7 -17 hhcurveto
          -53 -125 101 hlineto
          107 29 50 74 11 hvcurveto
          58 397 rlineto
          99 125 -80 hlineto
          3 23 rlineto
          15 2 6 7 17 hhcurveto
          endchar
        </CharString>
        <CharString name="four">
          216 callgsubr
        </CharString>
        <CharString name="fraction">
          226 callsubr
        </CharString>
        <CharString name="g">
          -18 225 155 28 callgsubr
        </CharString>
        <CharString name="gbreve">
          -18 289 532 rmoveto
          107 40 49 75 hvcurveto
          26 -150 108 callgsubr
          36 -377 28 callgsubr
        </CharString>
        <CharString name="germandbls">
          180 262 163 rmoveto
          -39 vlineto
          -74 37 -48 103 -2 vhcurveto
          126 hlineto
          107 30 49 75 hvcurveto
          60 -13 callsubr
          -60 -54 callsubr
          7 -40 callsubr
          26 hlineto
          107 20 29 75 hvcurveto
          63 vlineto
          69 -40 47 -98 vhcurveto
          -291 hlineto
          -107 -30 -49 -75 hvcurveto
          -518 175 495 -40 callsubr
          159 hlineto
          17 5 -7 -15 hvcurveto
          -16 vlineto
          -15 -5 -7 -17 -99 -38 -37 -75 vhcurveto
          -22 vlineto
          -75 30 -49 107 vhcurveto
          66 -55 callgsubr
          -40 142 callsubr
          -18 hlineto
          -14 1 -6 7 14 vvcurveto
          26 vlineto
          endchar
        </CharString>
        <CharString name="grave">
          3 266 682 280 callgsubr
        </CharString>
        <CharString name="greater">
          36 340 323 rmoveto
          -315 -81 rlineto
          -136 vlineto
          483 146 rlineto
          146 vlineto
          -483 138 rlineto
          -134 vlineto
          endchar
        </CharString>
        <CharString name="greaterequal">
          36 390 429 rmoveto
          -365 -31 rlineto
          -128 vlineto
          483 86 rlineto
          150 vlineto
          -483 78 rlineto
          -126 vlineto
          -319 vmoveto
          483 118 -483 hlineto
          endchar
        </CharString>
        <CharString name="guillemotleft">
          4 125 96 302 callsubr
          322 -153 302 callsubr
          endchar
        </CharString>
        <CharString name="guillemotright">
          4 284 249 303 callgsubr
          322 153 303 callgsubr
          endchar
        </CharString>
        <CharString name="guilsinglleft">
          -198 125 96 rmoveto
          169 hlineto
          -107 153 107 151 rlineto
          -169 hlineto
          -110 -151 rlineto
          endchar
        </CharString>
        <CharString name="guilsinglright">
          -198 294 249 rmoveto
          -110 151 rlineto
          -169 hlineto
          107 -151 -107 -153 rlineto
          169 hlineto
          endchar
        </CharString>
        <CharString name="h">
          -13 298 499 rmoveto
          -47 -29 -20 -34 -12 hvcurveto
          224 -170 -669 29 callgsubr
        </CharString>
        <CharString name="hungarumlaut">
          3 223 532 347 callgsubr
          -287 -150 347 callgsubr
          endchar
        </CharString>
        <CharString name="hyphen">
          325 callsubr
        </CharString>
        <CharString name="i">
          207 callsubr
          -3 549 363 callsubr
        </CharString>
        <CharString name="iacute">
          207 callsubr
          14 532 150 callsubr
          endchar
        </CharString>
        <CharString name="icircumflex">
          207 callsubr
          -127 532 220 callsubr
        </CharString>
        <CharString name="idieresis">
          207 callsubr
          -114 542 177 callgsubr
          endchar
        </CharString>
        <CharString name="igrave">
          207 callsubr
          58 682 280 callgsubr
        </CharString>
        <CharString name="imacron">
          207 callsubr
          -110 555 335 callgsubr
        </CharString>
        <CharString name="infinity">
          110 497 301 rmoveto
          -24 -3 -8 -26 vhcurveto
          -37 hlineto
          -22 -16 20 20 -13 hvcurveto
          -22 33 32 56 rlineto
          20 11 9 9 17 hhcurveto
          10 -1 31 hlineto
          26 3 -9 -23 hvcurveto
          -359 -125 rmoveto
          -26 -3 8 24 hvcurveto
          93 vlineto
          23 3 9 26 vhcurveto
          26 hlineto
          23 16 -19 -22 14 hvcurveto
          25 -39 -27 -48 rlineto
          -15 -9 -16 -14 -21 hhcurveto
          252 262 rmoveto
          -69 -15 -18 -64 -36 hvcurveto
          -4 -7 -2 3 rlineto
          53 -35 -27 33 -60 hhcurveto
          -39 142 callgsubr
          -119 -28 callgsubr
          35 hlineto
          71 23 9 64 36 hvcurveto
          5 8 5 -7 rlineto
          -56 40 28 -18 63 hhcurveto
          32 -13 callgsubr
          119 -13 callsubr
          endchar
        </CharString>
        <CharString name="integral">
          -14 336 542 rmoveto
          15 2 6 7 17 hhcurveto
          53 125 -101 142 callgsubr
          -566 vlineto
          -15 -2 -6 -7 -17 hhcurveto
          -53 -125 101 -13 callgsubr
          endchar
        </CharString>
        <CharString name="iogonek">
          213 669 rmoveto
          -176 -120 176 hlineto
          -76 -726 318 callgsubr
          -170 -499 79 -17 -6 hlineto
          308 callsubr
        </CharString>
        <CharString name="itfLogo">
          1151 147 hmoveto
          237 callgsubr
          236 -634 rmoveto
          237 callgsubr
          236 -634 rmoveto
          237 callgsubr
          -410 vmoveto
          196 185 -196 hlineto
          endchar
        </CharString>
        <CharString name="itfStar">
          175 663 452 rmoveto
          -28 -200 -6 -2 -34 hvcurveto
          -66 246 -8 -27 -53 -188 -8 -31 rlinecurve
          -261 8 25 -15 168 -108 28 -17 rlinecurve
          -96 -247 24 20 152 128 29 20 rlinecurve
          204 -168 -11 28 -71 189 -12 30 rlinecurve
          endchar
        </CharString>
        <CharString name="j">
          40 13 10 callsubr
          -33 -120 81 -13 callgsubr
          504 -170 vlineto
          -3 50 363 callsubr
        </CharString>
        <CharString name="k">
          -22 480 499 252 callsubr
        </CharString>
        <CharString name="l">
          210 hmoveto
          327 callsubr
          endchar
        </CharString>
        <CharString name="lacute">
          56 702 150 callsubr
          57 -852 rmoveto
          327 callsubr
          endchar
        </CharString>
        <CharString name="lcaron">
          -197 210 hmoveto
          327 callsubr
          210 456 rmoveto
          40 hlineto
          76 136 rlineto
          77 -116 vlineto
          endchar
        </CharString>
        <CharString name="less">
          36 508 402 rmoveto
          134 vlineto
          -483 -138 rlineto
          -146 vlineto
          483 -146 rlineto
          136 vlineto
          -315 81 rlineto
          endchar
        </CharString>
        <CharString name="lessequal">
          36 508 458 rmoveto
          126 vlineto
          -483 -78 rlineto
          -150 vlineto
          483 -86 rlineto
          128 vlineto
          -365 31 rlineto
          365 -172 rmoveto
          -483 -118 483 hlineto
          endchar
        </CharString>
        <CharString name="logicalnot">
          70 507 417 rmoveto
          -457 -175 342 -141 115 hlineto
          endchar
        </CharString>
        <CharString name="lozenge">
          202 335 125 rmoveto
          -101 198 101 194 108 -194 rlineto
          -21 319 rmoveto
          -173 hlineto
          -182 -319 182 -322 rlineto
          173 hlineto
          188 322 rlineto
          endchar
        </CharString>
        <CharString name="lslash">
          -237 319 529 rmoveto
          -104 -50 rlineto
          190 -170 -272 vlineto
          -100 -48 rlineto
          -115 vlineto
          100 48 rlineto
          -282 170 364 vlineto
          104 50 rlineto
          endchar
        </CharString>
        <CharString name="m">
          226 537 499 rmoveto
          -50 -38 -25 -38 -11 hvcurveto
          39 -18 -38 24 -66 hhcurveto
          -18 hlineto
          224 callsubr
          -499 170 344 vlineto
          21 9 9 18 vhcurveto
          17 hlineto
          17 8 -7 -15 hvcurveto
          -352 29 callgsubr
        </CharString>
        <CharString name="macron">
          3 55 555 335 callgsubr
        </CharString>
        <CharString name="minus">
          169 15 257 340 callsubr
          endchar
        </CharString>
        <CharString name="multiply">
          -15 462 435 rmoveto
          -97 97 -124 -124 -124 124 -97 -97 124 -124 -124 -124 97 -97 124 124 124 -124 97 97 -124 124 rlineto
          endchar
        </CharString>
        <CharString name="n">
          -13 298 499 rmoveto
          224 callsubr
          -499 29 callgsubr
        </CharString>
        <CharString name="nacute">
          -13 423 682 49 callsubr
          8 -33 rmoveto
          224 callsubr
          -499 29 callgsubr
        </CharString>
        <CharString name="ncaron">
          -13 309 532 1 callsubr
          143 -33 rmoveto
          224 callsubr
          -499 29 callgsubr
        </CharString>
        <CharString name="nine">
          101 callgsubr
        </CharString>
        <CharString name="notequal">
          36 508 361 rmoveto
          129 -93 vlineto
          33 60 rlineto
          -109 hlineto
          -33 -60 rlineto
          -281 -129 210 hlineto
          -46 -83 rlineto
          -164 -129 93 hlineto
          -33 -60 rlineto
          109 hlineto
          33 60 rlineto
          281 129 -210 hlineto
          46 83 rlineto
          endchar
        </CharString>
        <CharString name="ntilde">
          -13 172 563 rmoveto
          208 callgsubr
          21 callsubr
          vlineto
          126 -33 rmoveto
          224 callsubr
          -499 29 callgsubr
        </CharString>
        <CharString name="numbersign">
          181 374 252 rmoveto
          -100 hlineto
          30 137 rlineto
          100 hlineto
          244 hmoveto
          110 -73 vlineto
          32 142 rlineto
          -146 hlineto
          -32 -142 rlineto
          -100 hlineto
          32 142 rlineto
          -145 hlineto
          -32 -142 rlineto
          -107 -110 82 hlineto
          -31 -137 rlineto
          -98 -110 73 hlineto
          -32 -142 rlineto
          146 hlineto
          32 142 rlineto
          100 hlineto
          -32 -142 rlineto
          145 hlineto
          32 142 rlineto
          107 110 -82 hlineto
          31 137 rlineto
          endchar
        </CharString>
        <CharString name="o">
          -16 279 140 -52 callsubr
        </CharString>
        <CharString name="oacute">
          -16 447 682 49 callsubr
          -35 -392 -52 callsubr
        </CharString>
        <CharString name="ocircumflex">
          -16 241 601 47 callgsubr
          91 -392 -52 callsubr
        </CharString>
        <CharString name="odieresis">
          -16 437 672 64 callsubr
          82 -402 -52 callsubr
        </CharString>
        <CharString name="oe">
          336 294 callsubr
          -251 -145 rmoveto
          -21 -9 -9 -18 vhcurveto
          -17 hlineto
          -5 callsubr
          18 9 -9 -21 hvcurveto
          207 155 rmoveto
          -69 -41 -21 -35 -21 hvcurveto
          35 -19 -47 21 -48 hhcurveto
          -68 hlineto
          -95 -38 102 callsubr
          38 -49 95 vhcurveto
          67 hlineto
          48 47 21 35 19 hvcurveto
          -35 21 41 -21 69 hhcurveto
          63 -13 callgsubr
          43 -165 -25 338 callgsubr
          59 251 174 -13 callsubr
          endchar
        </CharString>
        <CharString name="ogonek">
          3 284 -177 rmoveto
          117 callgsubr
          129 -91 -32 -6 hlineto
          308 callsubr
        </CharString>
        <CharString name="ograve">
          -16 303 532 133 callgsubr
          110 -392 -52 callsubr
        </CharString>
        <CharString name="ohungarumlaut">
          -16 384 532 128 callgsubr
          85 -392 -52 callsubr
        </CharString>
        <CharString name="omacron">
          -16 427 661 254 callgsubr
          -148 -415 -52 callsubr
        </CharString>
        <CharString name="one">
          303 callsubr
        </CharString>
        <CharString name="onesuperior">
          -279 169 642 rmoveto
          -159 -69 49 -284 110 hlineto
          endchar
        </CharString>
        <CharString name="ordfeminine">
          -160 147 375 rmoveto
          -12 -5 5 11 hvcurveto
          151 vlineto
          11 5 5 12 vhcurveto
          36 hlineto
          13 6 -7 -14 hvcurveto
          -140 vlineto
          -15 -6 -7 -13 vhcurveto
          22 267 rmoveto
          -43 vlineto
          27 -6 -17 16 -36 hhcurveto
          -27 hlineto
          -67 -27 -34 -54 hvcurveto
          -177 vlineto
          -53 27 -35 67 vhcurveto
          31 hlineto
          30 15 11 19 7 hvcurveto
          -30 105 353 vlineto
          endchar
        </CharString>
        <CharString name="ordmasculine">
          -166 201 373 rmoveto
          -11 -6 -4 -12 vhcurveto
          -35 hlineto
          -12 -6 4 11 hvcurveto
          184 vlineto
          11 6 5 12 vhcurveto
          35 hlineto
          12 6 -5 -11 hvcurveto
          -76 85 rmoveto
          -75 -25 -34 -54 hvcurveto
          -177 vlineto
          -53 25 -35 75 vhcurveto
          80 hlineto
          76 25 35 53 hvcurveto
          177 vlineto
          54 -25 34 -76 vhcurveto
          endchar
        </CharString>
        <CharString name="oslash">
          -16 284 135 10 callsubr
          -37 hlineto
          -14 -8 5 10 -2 hvcurveto
          86 131 rlineto
          -87 105 rmoveto
          15 8 7 17 vhcurveto
          37 hlineto
          15 8 -5 -12 2 hvcurveto
          -87 -130 rlineto
          260 280 rmoveto
          -74 hlineto
          -18 -27 rlineto
          5 -17 -20 2 -24 hhcurveto
          -127 hlineto
          -107 -35 137 callsubr
          -36 8 -30 20 -21 vhcurveto
          -38 -57 rlineto
          74 hlineto
          18 27 rlineto
          -5 17 20 -2 23 hhcurveto
          127 hlineto
          107 35 49 75 hvcurveto
          251 vlineto
          35 -8 30 -19 21 vhcurveto
          endchar
        </CharString>
        <CharString name="otilde">
          -16 175 563 rmoveto
          208 callgsubr
          21 callsubr
          vlineto
          104 -392 -52 callsubr
        </CharString>
        <CharString name="p">
          -18 279 152 callsubr
          224 callsubr
          -628 170 183 vlineto
          -34 12 29 -20 47 253 callgsubr
        </CharString>
        <CharString name="paragraph">
          72 331 642 rmoveto
          -157 142 callgsubr
          -184 -28 callgsubr
          22 -339 135 hlineto
          53 771 rmoveto
          -771 135 771 vlineto
          endchar
        </CharString>
        <CharString name="parenleft">
          -160 40 141 rmoveto
          -201 103 -106 175 vhcurveto
          9 145 -9 hlineto
          -55 -48 35 124 hvcurveto
          362 vlineto
          124 48 35 55 vhcurveto
          9 145 -9 hlineto
          -175 -103 -106 -201 hvcurveto
          endchar
        </CharString>
        <CharString name="parenright">
          -160 297 497 rmoveto
          201 -103 106 -175 vhcurveto
          -9 -145 9 hlineto
          55 48 -35 -124 hvcurveto
          -362 vlineto
          -124 -48 -35 -55 vhcurveto
          -9 -145 9 hlineto
          175 103 106 201 hvcurveto
          endchar
        </CharString>
        <CharString name="percent">
          401 50 callsubr
          endchar
        </CharString>
        <CharString name="period">
          -245 40 hmoveto
          215 callgsubr
          endchar
        </CharString>
        <CharString name="periodcentered">
          -225 49 258 rmoveto
          172 154 -172 hlineto
          endchar
        </CharString>
        <CharString name="perthousand">
          773 50 callsubr
          550 -359 rmoveto
          61 -32 39 -86 vhcurveto
          -102 hlineto
          -86 -32 -39 -61 hvcurveto
          -183 vlineto
          -60 32 -40 86 vhcurveto
          102 hlineto
          86 32 40 60 hvcurveto
          -141 20 rmoveto
          -12 -6 -5 -14 vhcurveto
          -16 hlineto
          -14 -6 5 12 hvcurveto
          143 vlineto
          12 6 6 14 vhcurveto
          16 hlineto
          14 6 -6 -12 hvcurveto
          endchar
        </CharString>
        <CharString name="pi">
          73 560 499 rmoveto
          -492 -352 hlineto
          321 callgsubr
          260 76 -384 175 384 71 vlineto
          endchar
        </CharString>
        <CharString name="plus">
          16 498 382 rmoveto
          -160 155 -163 -155 -160 -125 160 -155 163 155 160 hlineto
          endchar
        </CharString>
        <CharString name="plusminus">
          36 25 139 340 callsubr
          323 228 rmoveto
          75 -163 -75 -160 -121 160 -75 163 75 160 121 vlineto
          endchar
        </CharString>
        <CharString name="product">
          42 498 582 rmoveto
          60 -440 -495 vlineto
          321 callgsubr
          403 96 -527 175 582 vlineto
          endchar
        </CharString>
        <CharString name="q">
          -18 225 125 -28 callsubr
          -183 170 628 vlineto
          endchar
        </CharString>
        <CharString name="question">
          -28 139 hmoveto
          215 callgsubr
          28 478 rmoveto
          23 callgsubr
          -81 175 68 -40 callsubr
          29 -55 callgsubr
          -97 142 callsubr
          -110 hlineto
          15 -153 rlineto
          146 hlineto
          6 61 rlineto
          104 1 39 49 74 vvcurveto
          100 -13 callsubr
          endchar
        </CharString>
        <CharString name="questiondown">
          -28 330 499 rmoveto
          -172 -164 172 hlineto
          -56 -273 rmoveto
          -68 vlineto
          349 callgsubr
          97 -40 callsubr
          110 hlineto
          -15 153 rlineto
          -146 hlineto
          -6 -61 rlineto
          -104 -1 -39 -49 -74 vvcurveto
          -100 -28 callgsubr
          135 -13 callgsubr
          81 vlineto
          endchar
        </CharString>
        <CharString name="quotedbl">
          -63 40 642 rmoveto
          -266 153 266 vlineto
          48 hmoveto
          -266 153 266 vlineto
          endchar
        </CharString>
        <CharString name="quotedblbase">
          -33 252 -149 256 callsubr
          -212 -313 256 callsubr
          endchar
        </CharString>
        <CharString name="quotedblleft">
          -33 212 642 rmoveto
          -45 357 callsubr
          172 vlineto
          212 313 rmoveto
          -45 357 callsubr
          172 vlineto
          endchar
        </CharString>
        <CharString name="quotedblright">
          -33 252 329 256 callsubr
          -212 -313 256 callsubr
          endchar
        </CharString>
        <CharString name="quoteleft">
          -243 214 642 rmoveto
          -47 357 callsubr
          174 vlineto
          endchar
        </CharString>
        <CharString name="quoteright">
          -243 40 329 rmoveto
          47 hlineto
          127 223 rlineto
          90 -174 vlineto
          endchar
        </CharString>
        <CharString name="quotesinglbase">
          -245 40 -149 rmoveto
          293 callgsubr
        </CharString>
        <CharString name="quotesingle">
          -254 40 642 rmoveto
          -266 163 266 vlineto
          endchar
        </CharString>
        <CharString name="r">
          -162 315 504 264 callgsubr
        </CharString>
        <CharString name="racute">
          -162 383 682 49 callsubr
          -43 261 callgsubr
        </CharString>
        <CharString name="rcaron">
          -162 261 532 1 callsubr
          100 261 callgsubr
        </CharString>
        <CharString name="registered">
          -19 448 556 rmoveto
          107 -32 72 -120 vhcurveto
          -115 hlineto
          -120 -31 -72 -107 hvcurveto
          -19 vlineto
          -106 31 -73 -20 callgsubr
          115 hlineto
          120 32 73 106 hvcurveto
          -247 -117 rmoveto
          -64 -31 13 93 hvcurveto
          42 vlineto
          92 31 13 64 vhcurveto
          76 hlineto
          64 30 -13 -92 hvcurveto
          -42 vlineto
          -93 -30 -13 -64 vhcurveto
          -108 222 rmoveto
          -189 57 66 4 vlineto
          33 -66 rlineto
          62 hlineto
          -39 68 rlineto
          19 6 8 14 19 vvcurveto
          42 vlineto
          24 -13 16 -35 vhcurveto
          -9 -75 rmoveto
          -5 -3 -2 -5 vhcurveto
          -22 42 22 hlineto
          5 3 -2 -5 hvcurveto
          endchar
        </CharString>
        <CharString name="ring">
          3 395 615 rmoveto
          54 -25 36 -77 vhcurveto
          -86 hlineto
          -77 -25 -36 -54 hvcurveto
          -16 vlineto
          -54 25 -35 77 vhcurveto
          86 hlineto
          77 25 35 54 hvcurveto
          -106 1 rmoveto
          -13 -5 -6 -15 vhcurveto
          -38 hlineto
          -15 -5 6 13 hvcurveto
          14 vlineto
          13 5 6 15 vhcurveto
          38 hlineto
          15 5 -6 -13 hvcurveto
          endchar
        </CharString>
        <CharString name="s">
          -52 255 132 -35 callgsubr
        </CharString>
        <CharString name="sacute">
          -52 162 532 150 callsubr
          -4 -550 -35 callgsubr
        </CharString>
        <CharString name="scaron">
          -52 145 532 178 callgsubr
          243 -550 -35 callgsubr
        </CharString>
        <CharString name="section">
          224 410 360 rmoveto
          17 8 -7 -15 hvcurveto
          -84 142 callsubr
          -34 -54 callsubr
          84 -40 callsubr
          227 152 rmoveto
          33 -13 callsubr
          -117 142 callgsubr
          -61 vlineto
          -37 10 -30 22 -22 vhcurveto
          -24 -21 -9 -33 -43 vvcurveto
          -57 -28 callgsubr
          61 -55 callgsubr
          -40 142 callsubr
          -21 -54 callsubr
          25 -170 -33 -28 callgsubr
          117 -13 callgsubr
          61 vlineto
          33 -8 27 -17 21 vhcurveto
          19 22 7 30 39 vvcurveto
          71 vlineto
          75 -40 49 268 callsubr
          40 -40 callsubr
          21 -55 callgsubr
          -25 vlineto
          endchar
        </CharString>
        <CharString name="semicolon">
          -245 40 335 rmoveto
          215 callgsubr
          -648 vmoveto
          293 callgsubr
        </CharString>
        <CharString name="seven">
          264 callsubr
        </CharString>
        <CharString name="six">
          103 callgsubr
        </CharString>
        <CharString name="slash">
          226 callsubr
        </CharString>
        <CharString name="space">
          -297 endchar
        </CharString>
        <CharString name="sterling">
          9 212 125 rmoveto
          20 15 7 25 32 vvcurveto
          47 148 115 -148 136 -40 callsubr
          23 -55 callgsubr
          -70 175 93 -13 callsubr
          -129 142 callgsubr
          -159 -44 -115 44 -46 vlineto
          -50 -1 -26 -43 -6 vhcurveto
          -116 471 125 vlineto
          endchar
        </CharString>
        <CharString name="t">
          -194 293 374 236 callsubr
        </CharString>
        <CharString name="tcaron">
          -194 230 597 rmoveto
          -170 -98 -55 -125 55 -250 hlineto
          -75 40 -49 107 vhcurveto
          85 125 -37 -54 callsubr
          227 63 125 -63 vlineto
          43 232 rmoveto
          -194 40 vlineto
          76 117 rlineto
          77 vlineto
          endchar
        </CharString>
        <CharString name="thorn">
          -8 273 152 callsubr
          -52 -30 -24 -40 -9 hvcurveto
          234 -167 -798 170 183 vlineto
          -34 12 29 -20 47 253 callgsubr
        </CharString>
        <CharString name="three">
          85 callgsubr
        </CharString>
        <CharString name="threesuperior">
          -214 311 callsubr
          -53 vlineto
          -8 -4 -4 -9 vhcurveto
          -37 -64 37 hlineto
          9 4 -3 -9 hvcurveto
          -50 vlineto
          -8 -4 -4 -9 vhcurveto
          -11 hlineto
          -10 -4 4 8 hvcurveto
          35 -106 -48 vlineto
          -41 22 -27 59 vhcurveto
          87 hlineto
          59 22 27 41 hvcurveto
          51 vlineto
          28 -5 19 -21 10 vhcurveto
          21 11 5 22 29 vvcurveto
          47 vlineto
          41 -22 27 -59 vhcurveto
          -87 hlineto
          -59 -22 -27 -41 hvcurveto
          -47 106 vlineto
          endchar
        </CharString>
        <CharString name="tilde">
          3 328 532 rmoveto
          21 callsubr
          31 vlineto
          208 callgsubr
          endchar
        </CharString>
        <CharString name="trademark">
          234 10 547 rmoveto
          86 -237 121 237 87 95 -294 hlineto
          571 hmoveto
          -65 -184 -65 184 rlineto
          -120 -332 105 159 hlineto
          38 -116 rlineto
          83 hlineto
          39 118 rlineto
          -161 105 332 vlineto
          endchar
        </CharString>
        <CharString name="two">
          134 callgsubr
        </CharString>
        <CharString name="twosuperior">
          -210 311 callsubr
          -37 vlineto
          -32 -2 -10 -20 -18 vhcurveto
          -120 -111 rlineto
          -64 247 73 -117 vlineto
          73 65 rlineto
          28 25 16 31 49 vvcurveto
          42 vlineto
          41 -21 27 -59 vhcurveto
          -88 hlineto
          -59 -22 -27 -41 hvcurveto
          -63 106 vlineto
          endchar
        </CharString>
        <CharString name="u">
          -13 274 499 -21 callgsubr
        </CharString>
        <CharString name="uacute">
          -13 430 682 49 callsubr
          -23 -33 -21 callgsubr
        </CharString>
        <CharString name="ucircumflex">
          -13 241 601 47 callgsubr
          86 -33 -21 callgsubr
        </CharString>
        <CharString name="udieresis">
          3 435 672 64 callsubr
          79 -43 -21 callgsubr
        </CharString>
        <CharString name="ugrave">
          -13 312 532 133 callgsubr
          96 -33 -21 callgsubr
        </CharString>
        <CharString name="uhungarumlaut">
          -13 391 532 128 callgsubr
          73 -33 -21 callgsubr
        </CharString>
        <CharString name="umacron">
          -13 433 661 254 callgsubr
          -159 -56 -21 callgsubr
        </CharString>
        <CharString name="underscore">
          -23 -155 vmoveto
          474 115 -474 hlineto
          endchar
        </CharString>
        <CharString name="uni00A0">
          -297 endchar
        </CharString>
        <CharString name="uni00AD">
          325 callsubr
        </CharString>
        <CharString name="uni00B5">
          -8 279 499 rmoveto
          -344 vlineto
          113 callgsubr
          352 -170 -628 170 130 vlineto
          40 6 24 22 8 35 rrcurveto
          -64 167 353 callsubr
        </CharString>
        <CharString name="uni0122">
          4 180 8 callsubr
          291 468 54 callgsubr
        </CharString>
        <CharString name="uni0123">
          -18 335 784 rmoveto
          -52 hlineto
          -115 -166 rlineto
          -87 167 vlineto
          -110 -376 28 callgsubr
        </CharString>
        <CharString name="uni0136">
          33 524 hmoveto
          -126 328 314 callgsubr
          -121 642 rmoveto
          -175 317 callgsubr
          hlineto
          -42 8 callsubr
          endchar
        </CharString>
        <CharString name="uni0137">
          -22 164 8 callsubr
          316 545 252 callsubr
        </CharString>
        <CharString name="uni013B">
          -83 142 8 callsubr
          73 171 243 callgsubr
        </CharString>
        <CharString name="uni013C">
          41 8 callsubr
          169 46 rmoveto
          327 callsubr
          endchar
        </CharString>
        <CharString name="uni0145">
          36 175 8 callsubr
          158 688 117 callsubr
        </CharString>
        <CharString name="uni0146">
          -13 162 8 callsubr
          136 545 rmoveto
          224 callsubr
          -499 29 callgsubr
        </CharString>
        <CharString name="uni0156">
          17 284 517 rmoveto
          17 8 -7 -15 hvcurveto
          -126 142 callsubr
          -69 170 hlineto
          -289 vmoveto
          11 hlineto
          102 -228 rlineto
          188 hlineto
          -118 235 rlineto
          62 16 24 42 59 vvcurveto
          166 -13 callsubr
          -297 317 callgsubr
          hlineto
          -51 8 callsubr
          endchar
        </CharString>
        <CharString name="uni0157">
          -162 41 8 callsubr
          274 550 264 callgsubr
        </CharString>
        <CharString name="uni015E">
          -6 156 8 callsubr
          130 193 -39 callgsubr
        </CharString>
        <CharString name="uni015F">
          -52 138 8 callsubr
          117 178 -35 callgsubr
        </CharString>
        <CharString name="uni0162">
          -65 133 8 callsubr
          294 688 202 callsubr
        </CharString>
        <CharString name="uni0163">
          -65 132 8 callsubr
          295 688 202 callsubr
        </CharString>
        <CharString name="uni0218">
          -6 158 8 callsubr
          128 193 -39 callgsubr
        </CharString>
        <CharString name="uni0219">
          -52 128 8 callsubr
          127 178 -35 callgsubr
        </CharString>
        <CharString name="uni021A">
          -65 131 8 callsubr
          296 688 202 callsubr
        </CharString>
        <CharString name="uni021B">
          -194 82 8 callsubr
          211 420 236 callsubr
        </CharString>
        <CharString name="uni02C9">
          3 55 554 rmoveto
          389 107 -389 hlineto
          endchar
        </CharString>
        <CharString name="uni0901">
          -497 -183 829 -70 callsubr
          -189 -164 220 callgsubr
        </CharString>
        <CharString name="uni0902">
          -497 -181 728 -70 callsubr
          endchar
        </CharString>
        <CharString name="uni0902.aMatraI">
          -497 30 658 -70 callsubr
          endchar
        </CharString>
        <CharString name="uni0903">
          -235 -124 356 -70 callsubr
          -427 vmoveto
          122 129 -122 hlineto
          endchar
        </CharString>
        <CharString name="uni0905">
          233 750 642 rmoveto
          -230 -274 -100 hlineto
          -45 callsubr
          60 vlineto
          endchar
        </CharString>
        <CharString name="uni0906">
          328 callgsubr
          -480 -274 -100 hlineto
          -53 callsubr
          endchar
        </CharString>
        <CharString name="uni0907">
          -35 414 330 callsubr
          68 113 -502 -113 264 7 callgsubr
          endchar
        </CharString>
        <CharString name="uni0908">
          -35 490 709 rmoveto
          103 -106 128 callsubr
          -63 -264 -113 264 7 callgsubr
          191 160 68 113 -68 47 hlineto
          -105 callgsubr
          endchar
        </CharString>
        <CharString name="uni09080902">
          -35 414 295 callgsubr
          -264 -113 264 7 callgsubr
          191 160 68 113 -68 hlineto
          36 133 306 callsubr
        </CharString>
        <CharString name="uni0909">
          -26 482 642 rmoveto
          -502 156 callgsubr
          181 158 callgsubr
          99 vlineto
          10 -2 8 -4 7 vhcurveto
          66 hlineto
          endchar
        </CharString>
        <CharString name="uni090A">
          180 697 642 rmoveto
          -717 156 callgsubr
          124 42 vlineto
          15 8 -5 -19 hvcurveto
          -74 51 callgsubr
          -113 23 callsubr
          110 46 callsubr
          -151 5 hlineto
          30 4 17 15 37 vvcurveto
          99 vlineto
          10 -2 8 -4 7 vhcurveto
          281 hlineto
          endchar
        </CharString>
        <CharString name="uni090B">
          519 744 260 callgsubr
          -230 228 rmoveto
          522 113 -1056 -113 364 -248 -15 hlineto
          -81 119 rlineto
          -4 callgsubr
          20 -181 170 181 269 -74 callsubr
          -38 -81 callsubr
          -22 113 callsubr
          18 -170 -34 vlineto
          -91 callsubr
          109 callsubr
          70 158 callgsubr
          51 84 callsubr
          -80 159 callsubr
          -39 vlineto
          -10 2 -8 4 -7 vhcurveto
          -66 hlineto
          endchar
        </CharString>
        <CharString name="uni090C">
          243 700 46 rmoveto
          483 118 callgsubr
          -210 230 callgsubr
        </CharString>
        <CharString name="uni090D">
          15 362 675 rmoveto
          266 callsubr
          -93 vlineto
          -65 38 -34 114 vhcurveto
          366 -33 rmoveto
          -552 -113 60 -422 hlineto
          27 callgsubr
        </CharString>
        <CharString name="uni090E">
          15 532 642 rmoveto
          -60 74 hlineto
          104 callgsubr
          -322 -113 60 -422 vlineto
          27 callgsubr
        </CharString>
        <CharString name="uni090F">
          15 532 642 rmoveto
          -552 -113 60 -422 hlineto
          27 callgsubr
        </CharString>
        <CharString name="uni0910">
          15 532 642 rmoveto
          -62 245 callsubr
          -324 -113 60 -422 hlineto
          27 callgsubr
        </CharString>
        <CharString name="uni0911">
          328 callgsubr
          -480 -274 -100 hlineto
          -53 callsubr
          -35 358 125 callgsubr
        </CharString>
        <CharString name="uni0912">
          328 callgsubr
          -60 74 hlineto
          104 callgsubr
          -250 -274 -100 vlineto
          -53 callsubr
          endchar
        </CharString>
        <CharString name="uni0913">
          328 callgsubr
          -65 245 callsubr
          -249 -274 -100 hlineto
          -53 callsubr
          endchar
        </CharString>
        <CharString name="uni0914">
          328 callgsubr
          -61 hlineto
          -14 201 rlineto
          69 callgsubr
          117 -98 53 -45 32 -25 54 -33 rlinecurve
          -248 -274 -100 hlineto
          -53 callsubr
          endchar
        </CharString>
        <CharString name="uni0915">
          203 720 270 callgsubr
          -740 -113 285 -314 vlineto
          -19 -8 -5 -15 vhcurveto
          -29 hlineto
          -15 -8 5 19 hvcurveto
          134 vlineto
          15 8 5 15 vhcurveto
          11 103 -64 hlineto
          -109 -31 -34 -73 hvcurveto
          -160 vlineto
          -99 callsubr
        </CharString>
        <CharString name="uni0915093C">
          203 87 108 callsubr
          633 270 callgsubr
          -740 -113 285 -314 vlineto
          -19 -8 -5 -15 vhcurveto
          -29 hlineto
          -15 -8 5 19 hvcurveto
          134 vlineto
          15 8 5 15 vhcurveto
          11 103 -64 hlineto
          -109 -31 -34 -73 hvcurveto
          -160 vlineto
          -99 callsubr
        </CharString>
        <CharString name="uni0915093C094D">
          66 77 -130 -70 callsubr
          506 530 rmoveto
          113 -603 -113 285 -314 vlineto
          -99 callgsubr
          27 16 5 11 10 hvcurveto
          -94 170 305 -87 callgsubr
          125 113 -95 hlineto
          239 callgsubr
          vlineto
          endchar
        </CharString>
        <CharString name="uni0915093C094D0915093C">
          693 83 -131 -70 callsubr
          484 -126 -70 callsubr
          188 214 rmoveto
          -46 callsubr
          -226 144 callsubr
          320 vlineto
          300 callgsubr
          -1230 -113 285 -314 vlineto
          -99 callgsubr
          27 16 5 11 10 hvcurveto
          -94 170 335 -87 callgsubr
          58 hlineto
          -4 -15 -2 -15 -14 vvcurveto
          -110 vlineto
          -99 callsubr
        </CharString>
        <CharString name="uni0915093C094D0924">
          479 77 108 callsubr
          676 442 rmoveto
          -265 hlineto
          239 callgsubr
          318 329 callsubr
          -1003 -113 285 -314 hlineto
          -99 callgsubr
          27 16 5 11 10 hvcurveto
          -94 170 305 -87 callgsubr
          52 -222 hlineto
          -1 callgsubr
          176 305 callgsubr
          -329 186 callsubr
        </CharString>
        <CharString name="uni0915093C094D092B">
          702 77 108 callsubr
          687 156 callsubr
          700 87 rmoveto
          113 -1239 -113 285 -314 vlineto
          -99 callgsubr
          27 16 5 11 10 hvcurveto
          -94 170 305 -87 callgsubr
          61 -124 hlineto
          -99 callsubr
        </CharString>
        <CharString name="uni0915093C094D092B093C">
          702 89 108 callsubr
          508 108 callsubr
          167 156 callsubr
          700 87 rmoveto
          113 -1239 -113 285 -314 vlineto
          -99 callgsubr
          27 16 5 11 10 hvcurveto
          -94 170 305 -87 callgsubr
          61 -124 hlineto
          -99 callsubr
        </CharString>
        <CharString name="uni0915093C094D092C">
          555 77 108 callsubr
          651 369 rmoveto
          72 103 -312 144 callsubr
          407 -204 vlineto
          236 callgsubr
          -1092 -113 285 -314 hlineto
          -99 callgsubr
          27 16 5 11 10 hvcurveto
          -94 170 335 -87 callgsubr
          47 273 callgsubr
        </CharString>
        <CharString name="uni0915093C094D092E">
          709 77 108 callsubr
          919 -56 callgsubr
          -313 210 rmoveto
          313 -97 -260 -49 callgsubr
          791 226 rmoveto
          -1246 -113 285 -314 hlineto
          -99 callgsubr
          27 16 5 11 10 hvcurveto
          -94 170 295 vlineto
          19 8 5 15 252 callgsubr
        </CharString>
        <CharString name="uni0915093C094D0930">
          203 226 -179 -70 callsubr
          494 579 rmoveto
          113 -740 203 callgsubr
          -294 vlineto
          -26 callgsubr
          335 -62 callgsubr
          15 8 -5 -19 hvcurveto
          -114 -59 callsubr
          140 46 callsubr
          -61 277 callgsubr
        </CharString>
        <CharString name="uni0915093C094D0930094D">
          75 226 -179 -70 callsubr
          386 579 rmoveto
          113 -632 203 callgsubr
          -294 vlineto
          -26 callgsubr
          305 -87 callgsubr
          154 113 -124 hlineto
          239 callgsubr
          vlineto
          endchar
        </CharString>
        <CharString name="uni0915094D">
          66 583 270 callgsubr
          -603 -113 285 -314 vlineto
          -99 callgsubr
          27 16 5 11 10 hvcurveto
          -94 170 305 -87 callgsubr
          125 113 -95 hlineto
          239 callgsubr
          vlineto
          endchar
        </CharString>
        <CharString name="uni0915094D0915">
          693 755 215 rmoveto
          -46 callsubr
          -226 144 callsubr
          320 vlineto
          300 callgsubr
          -1230 -113 285 -314 vlineto
          -99 callgsubr
          27 16 5 11 10 hvcurveto
          -94 170 335 -87 callgsubr
          58 hlineto
          -4 -15 -2 -15 -14 vvcurveto
          -110 vlineto
          -99 callsubr
        </CharString>
        <CharString name="uni0915094D0916">
          904 733 377 rmoveto
          -56 callsubr
          99 -192 hlineto
          239 callgsubr
          249 callgsubr
          688 147 rmoveto
          -1441 -113 285 -314 hlineto
          -99 callgsubr
          27 16 5 11 10 hvcurveto
          -94 170 305 -87 callgsubr
          52 -214 -61 callgsubr
          294 -314 hlineto
          -99 callgsubr
          27 16 5 11 10 hvcurveto
          -94 -90 callsubr
          endchar
        </CharString>
        <CharString name="uni0915094D091A">
          458 745 -41 callsubr
          90 -87 callgsubr
          23 113 -228 hlineto
          239 callgsubr
          310 329 callsubr
          -995 -113 285 -314 hlineto
          -99 callgsubr
          27 16 5 11 10 hvcurveto
          -94 170 305 -87 callgsubr
          59 357 callgsubr
          -70 -15 callgsubr
        </CharString>
        <CharString name="uni0915094D091C">
          701 988 292 callsubr
          -192 vlineto
          -42 callgsubr
          73 553 329 callsubr
          -1238 -113 285 -314 hlineto
          -99 callgsubr
          27 16 5 11 10 hvcurveto
          -94 170 335 -87 callgsubr
          52 80 callgsubr
        </CharString>
        <CharString name="uni0915094D091F">
          461 748 472 rmoveto
          -260 144 callsubr
          313 329 callsubr
          -998 -113 285 -314 hlineto
          -99 callgsubr
          27 16 5 11 10 hvcurveto
          -94 170 335 -87 callgsubr
          52 -232 hlineto
          -95 callsubr
          -60 callsubr
        </CharString>
        <CharString name="uni0915094D0923">
          721 758 215 5 callgsubr
          -270 192 callsubr
          85 -87 vlineto
          718 200 rmoveto
          -1258 -113 285 -314 hlineto
          -99 callgsubr
          27 16 5 11 10 hvcurveto
          -94 170 305 -87 callgsubr
          62 -124 hlineto
          -95 callsubr
          324 223 callgsubr
        </CharString>
        <CharString name="uni0915094D0924">
          247 764 270 callgsubr
          -784 -113 329 -73 vlineto
          11 -10 -16 5 -27 hhcurveto
          -249 -113 77 hlineto
          -13 -8 -7 -16 -24 vvcurveto
          -126 vlineto
          -91 callsubr
          64 103 -31 callsubr
          134 -62 callgsubr
          15 8 -5 -19 hvcurveto
          -335 -103 callsubr
        </CharString>
        <CharString name="uni0915094D0924094D092F">
          839 1126 -55 callsubr
          93 -60 callgsubr
          60 267 callsubr
          -88 rmoveto
          -15 -69 callgsubr
          -385 -49 callgsubr
          124 427 191 callgsubr
          -1376 -113 285 -314 hlineto
          -99 callgsubr
          27 16 5 11 10 hvcurveto
          -94 170 284 -87 callgsubr
          47 -201 hlineto
          -1 callgsubr
          155 305 callgsubr
          -103 hlineto
          -88 callgsubr
        </CharString>
        <CharString name="uni0915094D0924094D0930">
          504 791 281 rmoveto
          -15 hlineto
          -81 119 rlineto
          51 -35 -24 16 -63 hhcurveto
          -85 -49 callgsubr
          78 356 329 callsubr
          -1041 -113 285 -314 hlineto
          -99 callgsubr
          27 16 5 11 10 hvcurveto
          -94 170 330 81 callgsubr
          hlineto
          21 11 -4 -27 18 hvcurveto
          63 -92 287 callgsubr
        </CharString>
        <CharString name="uni0915094D0924094D0935">
          713 1000 -41 callsubr
          104 -101 callsubr
          11 103 -471 hlineto
          239 callgsubr
          565 329 callsubr
          -1250 -113 285 -314 hlineto
          -99 callgsubr
          27 16 5 11 10 hvcurveto
          -94 170 305 -87 callgsubr
          62 hlineto
          -6 -5 -4 -9 -10 vvcurveto
          -198 200 callgsubr
          62 hlineto
          -6 -5 -4 -9 -10 275 callsubr
        </CharString>
        <CharString name="uni0915094D0925">
          624 1141 642 54 callsubr
          -162 -49 callgsubr
          142 56 113 -511 -113 285 -314 vlineto
          -99 callgsubr
          27 16 5 11 10 hvcurveto
          -94 170 266 -87 callgsubr
          62 -85 202 callgsubr
        </CharString>
        <CharString name="uni0915094D0926">
          461 748 459 rmoveto
          -260 -49 callgsubr
          86 313 329 callsubr
          -998 -113 285 -314 hlineto
          -99 callgsubr
          27 16 5 11 10 hvcurveto
          -94 170 322 -87 callgsubr
          52 -141 hlineto
          -80 callgsubr
          24 151 callgsubr
          278 -170 -63 159 callgsubr
          107 -36 callsubr
          213 183 60 hlineto
          endchar
        </CharString>
        <CharString name="uni0915094D0928">
          691 978 442 rmoveto
          -490 hlineto
          239 callgsubr
          543 vlineto
          -230 62 callsubr
          94 -101 callsubr
          45 hlineto
          460 313 rmoveto
          -1228 -113 285 -314 hlineto
          -99 callgsubr
          27 16 5 11 10 hvcurveto
          -94 170 305 -87 callgsubr
          52 -124 hlineto
          -95 callsubr
          124 60 -329 -96 callgsubr
        </CharString>
        <CharString name="uni0915094D092A">
          477 764 156 callsubr
          475 200 rmoveto
          -1014 -113 285 -314 hlineto
          -99 callgsubr
          27 16 5 11 10 hvcurveto
          -94 170 305 -87 callgsubr
          61 238 callgsubr
          529 60 vlineto
          endchar
        </CharString>
        <CharString name="uni0915094D092A094D0930">
          477 764 148 callgsubr
          -276 192 callsubr
          84 -87 vlineto
          475 200 rmoveto
          -1014 -113 285 -314 hlineto
          -99 callgsubr
          27 16 5 11 10 hvcurveto
          -94 170 305 -87 callgsubr
          61 -104 hlineto
          57 callgsubr
        </CharString>
        <CharString name="uni0915094D092B">
          702 764 156 callsubr
          700 87 rmoveto
          113 -1239 -113 285 -314 vlineto
          -99 callgsubr
          27 16 5 11 10 hvcurveto
          -94 170 305 -87 callgsubr
          61 -124 hlineto
          -99 callsubr
        </CharString>
        <CharString name="uni0915094D092E">
          709 996 -56 callgsubr
          -313 210 rmoveto
          313 -97 -260 -49 callgsubr
          791 226 rmoveto
          -1246 -113 285 -314 hlineto
          -99 callgsubr
          27 16 5 11 10 hvcurveto
          -94 170 295 vlineto
          19 8 5 15 252 callgsubr
        </CharString>
        <CharString name="uni0915094D092F">
          601 888 -73 callgsubr
          -230 -117 rmoveto
          -15 -69 callgsubr
          -147 -49 callgsubr
          153 189 191 callgsubr
          -1138 -113 285 -314 hlineto
          -99 callgsubr
          27 16 5 11 10 hvcurveto
          -94 170 255 -87 callgsubr
          52 -74 hlineto
          -88 callgsubr
        </CharString>
        <CharString name="uni0915094D0930">
          203 720 270 callgsubr
          -740 203 callgsubr
          -294 vlineto
          -26 callgsubr
          335 -62 callgsubr
          15 8 -5 -19 hvcurveto
          -114 -59 callsubr
          140 46 callsubr
          -61 277 callgsubr
        </CharString>
        <CharString name="uni0915094D0930.aTrad">
          282 799 270 callgsubr
          -819 -113 364 -248 -15 vlineto
          -81 119 rlineto
          -4 callgsubr
          20 -181 170 330 hlineto
          -79 callgsubr
          29 199 callgsubr
          -129 -59 callsubr
          155 46 callsubr
          -61 -49 callgsubr
          78 vlineto
          endchar
        </CharString>
        <CharString name="uni0915094D0930094D">
          75 612 270 callgsubr
          -632 203 callgsubr
          -294 vlineto
          -26 callgsubr
          305 -87 callgsubr
          154 113 -124 hlineto
          239 callgsubr
          vlineto
          endchar
        </CharString>
        <CharString name="uni0915094D0932">
          708 995 442 207 callgsubr
          -294 hlineto
          239 callgsubr
          560 329 callsubr
          -1245 -113 285 -314 hlineto
          -99 callgsubr
          27 16 5 11 10 hvcurveto
          -94 170 305 -87 callgsubr
          52 hlineto
          -5 0 -4 -5 vvcurveto
          -208 vlineto
          -91 callsubr
          225 callgsubr
          -329 186 callsubr
        </CharString>
        <CharString name="uni0915094D0935">
          468 755 -41 callsubr
          104 -101 callsubr
          11 103 -226 hlineto
          239 callgsubr
          320 329 callsubr
          -1005 -113 285 -314 hlineto
          -19 -8 -5 -15 vhcurveto
          -29 hlineto
          -15 -8 5 19 hvcurveto
          134 vlineto
          15 8 5 15 vhcurveto
          11 103 -64 hlineto
          -109 -31 -34 -73 hvcurveto
          -160 188 callsubr
        </CharString>
        <CharString name="uni0915094D0935094D092F">
          846 1133 -73 callgsubr
          -230 -117 rmoveto
          -15 -69 callgsubr
          -125 -177 hlineto
          -46 callsubr
          -226 144 callsubr
          434 191 callgsubr
          -1383 -113 285 -314 hlineto
          -99 callgsubr
          27 16 5 11 10 hvcurveto
          -94 170 335 -87 callgsubr
          56 hlineto
          -2 -10 -2 -11 -11 vvcurveto
          -122 vlineto
          -27 callgsubr
          91 hlineto
          36 22 8 15 12 hvcurveto
          -16 26 38 -7 50 -22 callsubr
        </CharString>
        <CharString name="uni0915094D0936">
          707 664 647 38 callgsubr
          -206 -49 callgsubr
          139 51 113 -506 -113 285 -314 vlineto
          -99 callgsubr
          27 16 5 11 10 hvcurveto
          -94 170 269 -87 callgsubr
          66 139 callsubr
        </CharString>
        <CharString name="uni0915094D0937">
          276 316 385 83 callsubr
          477 132 rmoveto
          -230 -281 -83 hlineto
          -48 callsubr
          343 -248 186 callsubr
        </CharString>
        <CharString name="uni0915094D0937094D">
          66 248 510 337 callgsubr
          -125 -43 callgsubr
          348 -137 rmoveto
          113 -116 vlineto
          -48 callsubr
          endchar
        </CharString>
        <CharString name="uni0915094D0937094D092E">
          773 1060 -56 callgsubr
          -496 66 83 callsubr
          974 132 rmoveto
          -766 356 callsubr
          -89 -37 -23 -48 -11 hvcurveto
          -97 hlineto
          -48 callsubr
          354 -43 126 callgsubr
        </CharString>
        <CharString name="uni0915094D0937094D092E094D">
          599 828 277 callsubr
          -512 66 83 callsubr
          820 19 347 callsubr
          -89 -37 -23 -48 -11 hvcurveto
          -113 hlineto
          -48 callsubr
          370 -43 hlineto
          273 callsubr
        </CharString>
        <CharString name="uni0915094D0937094D092E094D092F">
          1143 1430 -29 callgsubr
          -496 53 83 callsubr
          1344 132 rmoveto
          -1136 345 callsubr
          -84 -98 hlineto
          -97 -35 -27 -57 -7 hvcurveto
          -95 hlineto
          -48 callsubr
          354 -43 hlineto
          -95 callsubr
          127 70 -127 vlineto
          -88 callgsubr
        </CharString>
        <CharString name="uni0915094D0937094D092F">
          652 939 -55 callsubr
          57 -60 callgsubr
          96 9 callgsubr
          -623 -120 -104 callsubr
          101 158 callsubr
          853 132 rmoveto
          -628 -113 134 hlineto
          -58 callsubr
          -90 -81 callsubr
          -206 hlineto
          4 7 2 8 10 vvcurveto
          110 84 callsubr
          -86 159 callsubr
          -88 vlineto
          -22 6 -17 13 -12 vhcurveto
          -45 -11 -27 -35 -60 vvcurveto
          -165 vlineto
          -75 42 -35 65 vhcurveto
          131 hlineto
          27 16 5 11 10 hvcurveto
          -78 170 257 -170 -58 160 callsubr
          -71 -100 callgsubr
          111 -36 callsubr
          341 -67 hlineto
          -88 callgsubr
        </CharString>
        <CharString name="uni0915094D0937094D0935">
          535 316 385 83 callsubr
          720 132 rmoveto
          -495 -113 265 99 callgsubr
          -4 -81 vlineto
          -48 callsubr
          341 -43 hlineto
          14 callgsubr
          529 60 vlineto
          endchar
        </CharString>
        <CharString name="uni0915094D0938">
          680 967 157 callsubr
          79 -192 hlineto
          239 callgsubr
          264 vlineto
          26 8 -8 -26 hvcurveto
          464 147 rmoveto
          -1217 -113 285 -314 hlineto
          -99 callgsubr
          27 16 5 11 10 hvcurveto
          -94 170 305 -87 callgsubr
          52 -222 -93 callgsubr
          287 -250 -96 callgsubr
        </CharString>
        <CharString name="uni0915094D0938094D091F">
          922 1209 472 rmoveto
          35 callgsubr
          -2 -74 vlineto
          -71 callsubr
          312 hlineto
          -476 -132 94 callgsubr
          706 147 rmoveto
          -1459 -113 285 -314 hlineto
          -99 callgsubr
          27 16 5 11 10 hvcurveto
          -94 170 305 -87 callgsubr
          52 -222 -93 callgsubr
          291 -123 -103 callgsubr
          -60 callsubr
        </CharString>
        <CharString name="uni0915094D0938094D0921">
          910 1111 472 rmoveto
          -107 callsubr
          -2 -74 vlineto
          -71 callsubr
          277 -57 hlineto
          -441 -75 94 callgsubr
          611 -126 299 callsubr
          -1447 -113 285 -314 vlineto
          -99 callgsubr
          27 16 5 11 10 hvcurveto
          -94 170 305 -87 callgsubr
          52 -222 -93 callgsubr
          303 vlineto
          -32 17 38 -15 73 hhcurveto
          -64 callsubr
          -91 callsubr
          109 callsubr
          -51 callgsubr
          endchar
        </CharString>
        <CharString name="uni0915094D0938094D0924">
          912 1199 472 rmoveto
          -103 36 callgsubr
          302 hlineto
          -466 -132 94 callgsubr
          696 147 rmoveto
          -1449 -113 285 -314 hlineto
          -99 callgsubr
          27 16 5 11 10 hvcurveto
          -94 170 305 -87 callgsubr
          52 -222 -93 callgsubr
          276 -143 31 callsubr
        </CharString>
        <CharString name="uni0915094D0938094D092A094D0930">
          946 1233 -22 callgsubr
          -326 187 callgsubr
          720 147 rmoveto
          -1483 -113 285 -314 hlineto
          -99 callgsubr
          27 16 5 11 10 hvcurveto
          -94 170 305 -87 callgsubr
          62 -222 -93 callgsubr
          298 -45 vlineto
          -68 24 -37 47 -14 vhcurveto
          -98 -146 rlineto
          186 hlineto
          86 139 rlineto
          -79 -96 callgsubr
        </CharString>
        <CharString name="uni0915094D0938094D092A094D0932">
          1431 1718 472 rmoveto
          76 callsubr
          314 560 vlineto
          -811 187 callgsubr
          1205 147 rmoveto
          -1968 -113 285 -314 hlineto
          -99 callgsubr
          27 16 5 11 10 hvcurveto
          -94 170 305 -87 callgsubr
          62 -222 -93 callgsubr
          298 -45 vlineto
          -27 callgsubr
          61 hlineto
          27 17 5 11 9 hvcurveto
          -64 4 34 -30 102 hhcurveto
          -45 callgsubr
        </CharString>
        <CharString name="uni0916">
          434 951 642 rmoveto
          -971 -113 249 hlineto
          -81 callgsubr
          294 -314 hlineto
          -99 callgsubr
          27 16 5 11 10 hvcurveto
          -94 -90 callsubr
          endchar
        </CharString>
        <CharString name="uni0916093C">
          434 160 -177 -70 callsubr
          791 690 rmoveto
          -971 -113 249 hlineto
          -81 callgsubr
          294 -314 hlineto
          -99 callgsubr
          27 16 5 11 10 hvcurveto
          -94 -90 callsubr
          endchar
        </CharString>
        <CharString name="uni0916093C094D">
          226 160 -177 -70 callsubr
          486 397 152 callgsubr
          11 103 -38 callgsubr
          -160 vlineto
          -27 callgsubr
          135 113 -73 -102 callgsubr
          -666 427 rmoveto
          336 callsubr
          vlineto
          -81 callgsubr
          315 300 callsubr
        </CharString>
        <CharString name="uni0916093C094D0924">
          677 160 -177 -70 callsubr
          1034 690 rmoveto
          -1214 -113 249 hlineto
          -81 callgsubr
          537 -57 -103 198 callgsubr
          61 hlineto
          27 17 5 11 9 hvcurveto
          -64 4 34 -30 102 hhcurveto
          -32 callgsubr
        </CharString>
        <CharString name="uni0916093C094D092E">
          920 160 -177 -70 callsubr
          1047 480 232 callgsubr
          -1457 -113 249 hlineto
          -81 callgsubr
          532 247 callsubr
          -110 vlineto
          42 callgsubr
          36 22 9 18 12 hvcurveto
          -19 25 40 -8 58 126 callsubr
        </CharString>
        <CharString name="uni0916093C094D092F">
          812 160 -177 -70 callsubr
          939 273 21 callgsubr
          -1349 -113 249 hlineto
          -81 callgsubr
          408 hlineto
          -31 callgsubr
          -177 hlineto
          42 callgsubr
          38 21 10 19 12 hvcurveto
          -20 26 41 -9 55 -22 callsubr
        </CharString>
        <CharString name="uni0916093C094D0930">
          434 687 -179 -70 callsubr
          264 692 rmoveto
          -971 -113 249 hlineto
          171 callsubr
          294 -294 hlineto
          -26 callgsubr
          529 60 vlineto
          endchar
        </CharString>
        <CharString name="uni0916093C094D0930094D">
          223 286 -179 -70 callsubr
          360 399 66 callsubr
        </CharString>
        <CharString name="uni0916093C094D0935">
          679 160 -177 -70 callsubr
          1036 690 31 callgsubr
        </CharString>
        <CharString name="uni0916093C094D0936">
          904 160 -177 -70 callsubr
          50 278 -1 callsubr
        </CharString>
        <CharString name="uni0916093C094D0938">
          904 160 -177 -70 callsubr
          1018 411 rmoveto
          -70 hlineto
          -71 callsubr
          70 hlineto
          3 callsubr
          -1428 -113 249 hlineto
          -81 callgsubr
          483 99 callsubr
          -257 hlineto
          -92 callgsubr
          134 -101 callsubr
          10 103 -63 174 callsubr
          -91 callgsubr
          127 287 -250 -96 callgsubr
        </CharString>
        <CharString name="uni0916094D">
          226 646 349 152 callgsubr
          11 103 -38 callgsubr
          -160 vlineto
          -27 callgsubr
          135 113 -73 -102 callgsubr
          -666 427 rmoveto
          336 callsubr
          vlineto
          -81 callgsubr
          315 300 callsubr
        </CharString>
        <CharString name="uni0916094D0916">
          1115 1632 642 rmoveto
          -1652 -113 249 hlineto
          -81 callgsubr
          483 147 callgsubr
          -257 hlineto
          -99 callgsubr
          28 16 6 11 10 hvcurveto
          -68 9 55 -27 115 hhcurveto
          -62 callsubr
          294 -314 hlineto
          -99 callgsubr
          27 16 5 11 10 hvcurveto
          -94 -90 callsubr
          endchar
        </CharString>
        <CharString name="uni0916094D0924">
          677 1194 642 rmoveto
          -1214 -113 249 hlineto
          -81 callgsubr
          537 -57 -103 198 callgsubr
          61 hlineto
          27 17 5 11 9 hvcurveto
          -64 4 34 -30 102 hhcurveto
          -32 callgsubr
        </CharString>
        <CharString name="uni0916094D0928">
          902 959 13 callgsubr
          -1439 -113 249 hlineto
          -81 callgsubr
          762 -57 -328 198 callgsubr
          82 hlineto
          36 22 9 18 12 hvcurveto
          -19 25 40 -8 58 hhcurveto
          81 callsubr
        </CharString>
        <CharString name="uni0916094D092E">
          920 1207 432 232 callgsubr
          -1457 -113 249 hlineto
          -81 callgsubr
          532 247 callsubr
          -110 vlineto
          42 callgsubr
          36 22 9 18 12 hvcurveto
          -19 25 40 -8 58 126 callsubr
        </CharString>
        <CharString name="uni0916094D092F">
          812 1099 16 callgsubr
          -1349 -113 249 hlineto
          -81 callgsubr
          408 hlineto
          -31 callgsubr
          -177 hlineto
          42 callgsubr
          38 21 10 19 12 hvcurveto
          -20 26 41 -9 55 -22 callsubr
        </CharString>
        <CharString name="uni0916094D0930">
          434 951 642 rmoveto
          -971 -113 249 hlineto
          171 callsubr
          294 -294 hlineto
          -26 callgsubr
          529 60 vlineto
          endchar
        </CharString>
        <CharString name="uni0916094D0930094D">
          223 646 349 66 callsubr
        </CharString>
        <CharString name="uni0916094D0935">
          679 1196 642 31 callgsubr
        </CharString>
        <CharString name="uni0916094D0936">
          904 210 230 -1 callsubr
        </CharString>
        <CharString name="uni0917">
          229 223 191 -58 callgsubr
          505 451 rmoveto
          -766 -113 -72 callsubr
          223 callgsubr
        </CharString>
        <CharString name="uni0917093C">
          229 170 -117 -70 callsubr
          53 179 -58 callgsubr
          505 451 rmoveto
          -766 -113 -72 callsubr
          223 callgsubr
        </CharString>
        <CharString name="uni0917093C094D">
          19 166 108 callsubr
          57 191 -58 callgsubr
          295 451 rmoveto
          -556 -113 -72 callsubr
          100 vlineto
          endchar
        </CharString>
        <CharString name="uni0917093C094D0930">
          228 436 -179 -70 callsubr
          -213 321 111 callsubr
        </CharString>
        <CharString name="uni0917093C094D0930094D">
          103 198 328 rmoveto
          26 5 5 26 vhcurveto
          37 -64 213 callsubr
          77 -137 rmoveto
          310 callgsubr
          128 113 -584 294 callgsubr
          375 142 rmoveto
          -378 -380 rlineto
          160 hlineto
          218 219 rlineto
          -99 -163 96 callgsubr
        </CharString>
        <CharString name="uni0917094D">
          19 223 191 -58 callgsubr
          295 451 rmoveto
          -556 -113 -72 callsubr
          100 vlineto
          endchar
        </CharString>
        <CharString name="uni0917094D0917">
          695 689 191 -58 callgsubr
          -484 hmoveto
          -92 callsubr
          113 vlineto
          26 5 5 26 vhcurveto
          37 50 callgsubr
          971 451 rmoveto
          -1232 -113 -72 callsubr
          296 -57 -58 vlineto
          -65 callsubr
          223 callgsubr
        </CharString>
        <CharString name="uni0917094D0918">
          497 796 218 callgsubr
          -573 -338 -58 callgsubr
          785 451 rmoveto
          -1046 -113 -72 callsubr
          84 vlineto
          194 callgsubr
          -86 -73 callsubr
          -96 vlineto
          -44 callsubr
          72 -94 callgsubr
        </CharString>
        <CharString name="uni0917094D091C">
          695 223 191 -58 callgsubr
          979 451 rmoveto
          -1240 -113 -72 callsubr
          554 -57 -240 -257 vlineto
          32 callgsubr
          70 73 callsubr
          vlineto
          endchar
        </CharString>
        <CharString name="uni0917094D0923">
          705 742 215 5 callgsubr
          -519 -338 -58 callgsubr
          981 451 rmoveto
          -1242 -113 -72 callsubr
          68 -324 -103 callgsubr
          324 223 callgsubr
        </CharString>
        <CharString name="uni0917094D0926">
          455 223 191 -58 callgsubr
          731 451 rmoveto
          -992 -113 -72 callsubr
          306 -57 -98 vlineto
          -109 -31 -34 -73 hvcurveto
          -160 12 callgsubr
        </CharString>
        <CharString name="uni0917094D0927">
          575 223 191 -58 callgsubr
          -261 338 rmoveto
          -72 callsubr
          54 336 callgsubr
          vlineto
          1119 hmoveto
          28 callsubr
          -104 193 callgsubr
          174 -94 callgsubr
        </CharString>
        <CharString name="uni0917094D0927094D092F">
          960 223 191 -58 callgsubr
          -261 338 rmoveto
          -72 callsubr
          54 336 callgsubr
          vlineto
          1267 -417 48 callgsubr
          198 hlineto
          33 23 9 16 13 hvcurveto
          -17 26 39 -8 52 -22 callsubr
        </CharString>
        <CharString name="uni0917094D0927094D0935">
          827 223 191 -58 callgsubr
          -261 338 rmoveto
          -72 callsubr
          54 336 callgsubr
          vlineto
          1364 hmoveto
          -475 -113 245 99 callgsubr
          -140 vlineto
          27 callsubr
          -136 -73 callsubr
          -104 193 callgsubr
          198 hlineto
          31 22 8 14 13 hvcurveto
          -15 22 30 -7 38 57 callsubr
        </CharString>
        <CharString name="uni0917094D0928">
          692 749 215 -97 callsubr
          -526 -168 -58 callgsubr
          968 451 rmoveto
          -1229 -113 -72 callsubr
          543 -57 -328 vlineto
          144 callgsubr
        </CharString>
        <CharString name="uni0917094D0928094D092F">
          1075 1362 -7 callsubr
          -521 -141 -58 callgsubr
          1351 451 rmoveto
          -1612 -113 -72 callsubr
          662 283 callgsubr
          -30 -81 callsubr
          -463 hlineto
          -107 callsubr
          -133 -103 callgsubr
          127 70 -127 vlineto
          -88 callgsubr
        </CharString>
        <CharString name="uni0917094D092C">
          561 681 332 -46 callgsubr
          -458 -24 -58 callgsubr
          837 451 rmoveto
          -1098 -113 -72 callsubr
          412 -204 228 callsubr
          15 269 callsubr
          -83 -90 callsubr
          endchar
        </CharString>
        <CharString name="uni0917094D092D">
          710 223 191 -58 callgsubr
          -261 338 rmoveto
          -72 callsubr
          50 113 -506 vlineto
          769 -427 15 callsubr
          -98 vlineto
          -109 -31 -34 -73 hvcurveto
          -128 vlineto
          93 callgsubr
        </CharString>
        <CharString name="uni0917094D092D094D092F">
          1088 223 191 -58 callgsubr
          -261 338 rmoveto
          -72 callsubr
          50 113 -506 vlineto
          1385 -417 -61 callsubr
          100 -60 callgsubr
          53 9 callgsubr
          -616 -314 219 callgsubr
          846 327 rmoveto
          -608 -113 114 hlineto
          26 8 -8 -26 342 callsubr
          -193 102 -72 callgsubr
          -86 249 callsubr
          -116 -103 callgsubr
          110 68 -110 vlineto
          -88 callgsubr
        </CharString>
        <CharString name="uni0917094D092E">
          710 997 -56 callgsubr
          -526 -128 -58 callgsubr
          986 451 rmoveto
          -1247 -113 -72 callsubr
          313 -97 -98 vlineto
          88 callgsubr
        </CharString>
        <CharString name="uni0917094D092F">
          602 889 -73 callgsubr
          -666 -338 -58 callgsubr
          878 451 rmoveto
          -1139 -113 -72 callsubr
          189 vlineto
          -31 callgsubr
          -187 hlineto
          -88 callgsubr
        </CharString>
        <CharString name="uni0917094D0930">
          228 223 271 111 callsubr
        </CharString>
        <CharString name="uni0917094D0930094D">
          103 346 -80 rmoveto
          218 219 rlineto
          161 vlineto
          -378 -380 rlineto
          37 351 170 callgsubr
          -261 371 rmoveto
          294 callgsubr
          86 hlineto
          310 callgsubr
          128 231 callgsubr
        </CharString>
        <CharString name="uni0917094D0930094D092F">
          611 898 -73 callgsubr
          -675 -258 170 callgsubr
          887 371 rmoveto
          -1148 288 callgsubr
          -72 -103 callgsubr
          244 198 vlineto
          -31 callgsubr
          -136 hlineto
          -334 -336 rlineto
          160 hlineto
          199 200 rlineto
          -30 25 45 -12 66 -22 callsubr
        </CharString>
        <CharString name="uni0917094D0932">
          709 223 191 -58 callgsubr
          985 451 rmoveto
          -1246 -113 -72 callsubr
          560 -57 -96 vlineto
          -19 callsubr
          -238 vlineto
          -73 31 -34 109 vhcurveto
          -45 callgsubr
        </CharString>
        <CharString name="uni0917094D0935">
          469 223 191 -58 callgsubr
          745 451 rmoveto
          -1006 -113 -72 callsubr
          320 63 callgsubr
          124 vlineto
          15 8 5 15 vhcurveto
          11 113 -7 callgsubr
        </CharString>
        <CharString name="uni0917094D0938">
          681 968 363 rmoveto
          -70 hlineto
          -71 callsubr
          70 hlineto
          -745 -338 -58 callgsubr
          957 451 rmoveto
          -1218 -113 -72 callsubr
          264 vlineto
          15 callgsubr
          138 callsubr
          127 287 -250 -96 callgsubr
        </CharString>
        <CharString name="uni0918">
          35 322 218 callgsubr
          3 callsubr
          -572 -113 66 hlineto
          194 callgsubr
          -86 -73 callsubr
          -96 vlineto
          -44 callsubr
          72 -94 callgsubr
        </CharString>
        <CharString name="uni0918093C094D0930">
          37 295 -179 -70 callsubr
          29 285 87 callsubr
        </CharString>
        <CharString name="uni0918093C094D0930094D">
          -163 354 211 rmoveto
          -121 -102 callgsubr
          44 81 callgsubr
          113 -33 -102 callgsubr
          55 vlineto
          26 8 8 26 vhcurveto
          110 113 -374 -113 66 hlineto
          194 callgsubr
          -86 -73 callsubr
          -96 vlineto
          -72 34 -34 75 -1 vhcurveto
          305 callsubr
          122 206 rlineto
          -68 -196 96 callgsubr
        </CharString>
        <CharString name="uni0918094D">
          -145 372 270 callgsubr
          -392 -113 66 vlineto
          194 callgsubr
          -86 -73 callsubr
          -96 vlineto
          -44 callsubr
          171 113 -139 -102 callgsubr
          64 81 callgsubr
          113 -33 -102 callgsubr
          55 vlineto
          26 8 8 26 vhcurveto
          endchar
        </CharString>
        <CharString name="uni0918094D0928">
          493 790 472 rmoveto
          -328 hlineto
          -107 callsubr
          -140 vlineto
          -42 callsubr
          -55 -102 callgsubr
          64 81 callgsubr
          113 -33 -102 callgsubr
          55 vlineto
          26 8 8 26 vhcurveto
          546 hlineto
          43 callsubr
          -1040 -113 66 hlineto
          194 callgsubr
          -86 -73 callsubr
          -96 vlineto
          -44 callsubr
          83 hlineto
          34 24 12 20 11 hvcurveto
          -22 25 41 -10 64 hhcurveto
          81 callsubr
        </CharString>
        <CharString name="uni0918094D092E">
          521 808 -56 callgsubr
          -238 -94 rmoveto
          -42 callsubr
          -55 -102 callgsubr
          64 81 callgsubr
          113 -33 -102 callgsubr
          55 vlineto
          26 8 8 26 vhcurveto
          316 247 callsubr
          716 317 rmoveto
          -1058 -113 66 hlineto
          194 callgsubr
          -86 -73 callsubr
          -96 vlineto
          -44 callsubr
          83 hlineto
          34 24 12 20 11 hvcurveto
          -22 25 41 -10 64 126 callsubr
        </CharString>
        <CharString name="uni0918094D092F">
          413 700 173 callgsubr
          -55 -102 callgsubr
          64 81 callgsubr
          113 -33 -102 callgsubr
          55 vlineto
          26 8 8 26 vhcurveto
          192 214 callgsubr
          -950 -113 66 hlineto
          194 callgsubr
          -86 -73 callsubr
          -96 vlineto
          -44 callsubr
          83 hlineto
          35 25 13 21 10 hvcurveto
          -24 26 43 -10 60 -22 callsubr
        </CharString>
        <CharString name="uni0918094D0930">
          37 324 235 87 callsubr
        </CharString>
        <CharString name="uni0918094D0930094D">
          -163 354 270 callgsubr
          -374 -113 66 vlineto
          194 callgsubr
          -86 -73 callsubr
          -96 vlineto
          -72 34 -34 75 -1 vhcurveto
          305 callsubr
          122 206 rlineto
          65 -121 vlineto
          -105 callsubr
          44 81 callgsubr
          113 -33 -102 callgsubr
          55 vlineto
          26 8 8 26 vhcurveto
          endchar
        </CharString>
        <CharString name="uni0919">
          61 434 284 -70 callsubr
          -454 229 rmoveto
          -71 callgsubr
          -91 callsubr
          109 callsubr
          -51 callgsubr
          180 160 171 300 callsubr
        </CharString>
        <CharString name="uni0919093C094D0930">
          61 173 -290 -70 callsubr
          261 445 -70 callsubr
          -454 229 rmoveto
          -71 callgsubr
          -65 24 -34 81 246 callgsubr
          150 rlineto
          72 9 22 33 180 callsubr
          171 300 callsubr
        </CharString>
        <CharString name="uni0919093C094D0930094D">
          61 78 -308 -70 callsubr
          133 hmoveto
          18 callgsubr
          57 463 -70 callsubr
          -454 229 rmoveto
          -71 callgsubr
          -65 24 -34 81 246 callgsubr
          150 rlineto
          72 9 22 33 180 callsubr
          171 300 callsubr
        </CharString>
        <CharString name="uni0919094D">
          61 147 -61 rmoveto
          18 callgsubr
          121 345 -70 callsubr
          -454 229 rmoveto
          -71 callgsubr
          -91 callsubr
          109 callsubr
          -51 callgsubr
          180 160 171 300 callsubr
        </CharString>
        <CharString name="uni0919094D0930">
          61 434 284 -70 callsubr
          -454 229 rmoveto
          -71 callgsubr
          -65 24 -34 81 246 callgsubr
          150 rlineto
          72 9 22 33 180 callsubr
          171 300 callsubr
        </CharString>
        <CharString name="uni091A">
          2 519 642 rmoveto
          -541 -113 311 197 callsubr
          -272 -113 73 hlineto
          -11 -12 -6 -18 -24 275 callsubr
        </CharString>
        <CharString name="uni091A093C094D0930">
          2 246 -179 -70 callsubr
          273 692 135 callsubr
        </CharString>
        <CharString name="uni091A093C094D0930094D">
          -199 318 642 rmoveto
          -340 -113 340 hlineto
          -318 vmoveto
          -81 327 callgsubr
          vlineto
          10 callgsubr
          -59 23 -33 49 -11 vhcurveto
          -99 -162 rlineto
          179 hlineto
          122 206 rlineto
          -82 -196 96 callgsubr
        </CharString>
</ttFont>
